<mxfile host="app.diagrams.net" modified="2023-06-18T00:43:52.263Z" agent="Mozilla/5.0 (Windows NT 10.0; Win64; x64) AppleWebKit/537.36 (KHTML, like Gecko) Chrome/114.0.0.0 Safari/537.36" etag="foDNL2LXAFxWYOMQm8nZ" version="21.3.2" type="device">
  <diagram name="Page-1" id="ovOEdZIFqpLZJyKTmEr7">
    <mxGraphModel dx="1615" dy="792" grid="1" gridSize="10" guides="1" tooltips="1" connect="1" arrows="1" fold="1" page="1" pageScale="1" pageWidth="1100" pageHeight="850" math="0" shadow="0">
      <root>
        <mxCell id="0" />
        <mxCell id="1" parent="0" />
        <mxCell id="xKQsgJN87se9uh_CanPL-47" value="DocumentDB" style="verticalLabelPosition=bottom;verticalAlign=top;html=1;shape=mxgraph.basic.patternFillRect;fillStyle=diag;step=5;fillStrokeWidth=0.2;fillStrokeColor=#dddddd;" vertex="1" parent="1">
          <mxGeometry x="598" y="210" width="140" height="410" as="geometry" />
        </mxCell>
        <mxCell id="xKQsgJN87se9uh_CanPL-35" value="HTTPS&lt;br&gt;robots.txt" style="edgeStyle=orthogonalEdgeStyle;rounded=0;orthogonalLoop=1;jettySize=auto;html=1;" edge="1" parent="1" source="xKQsgJN87se9uh_CanPL-8" target="xKQsgJN87se9uh_CanPL-33">
          <mxGeometry relative="1" as="geometry" />
        </mxCell>
        <mxCell id="xKQsgJN87se9uh_CanPL-8" value="Public Research &lt;br&gt;Reports" style="image;aspect=fixed;perimeter=ellipsePerimeter;html=1;align=center;shadow=0;dashed=0;spacingTop=3;image=img/lib/active_directory/internet_globe.svg;" vertex="1" parent="1">
          <mxGeometry x="1009" y="240" width="50" height="50" as="geometry" />
        </mxCell>
        <mxCell id="xKQsgJN87se9uh_CanPL-41" style="edgeStyle=orthogonalEdgeStyle;rounded=0;orthogonalLoop=1;jettySize=auto;html=1;exitX=0.5;exitY=1;exitDx=0;exitDy=0;exitPerimeter=0;" edge="1" parent="1" source="xKQsgJN87se9uh_CanPL-13" target="xKQsgJN87se9uh_CanPL-34">
          <mxGeometry relative="1" as="geometry" />
        </mxCell>
        <mxCell id="xKQsgJN87se9uh_CanPL-13" value="colArticlesRaw" style="shape=mxgraph.bpmn.data;labelPosition=center;verticalLabelPosition=bottom;align=center;verticalAlign=top;size=15;html=1;bpmnTransferType=none;isCollection=1;" vertex="1" parent="1">
          <mxGeometry x="649" y="245" width="40" height="40" as="geometry" />
        </mxCell>
        <mxCell id="xKQsgJN87se9uh_CanPL-43" style="edgeStyle=orthogonalEdgeStyle;rounded=0;orthogonalLoop=1;jettySize=auto;html=1;" edge="1" parent="1" source="xKQsgJN87se9uh_CanPL-16" target="xKQsgJN87se9uh_CanPL-39">
          <mxGeometry relative="1" as="geometry">
            <Array as="points">
              <mxPoint x="669" y="420" />
              <mxPoint x="838" y="420" />
            </Array>
          </mxGeometry>
        </mxCell>
        <mxCell id="xKQsgJN87se9uh_CanPL-56" style="edgeStyle=orthogonalEdgeStyle;rounded=0;orthogonalLoop=1;jettySize=auto;html=1;entryX=1;entryY=0.5;entryDx=0;entryDy=0;" edge="1" parent="1" source="xKQsgJN87se9uh_CanPL-18" target="xKQsgJN87se9uh_CanPL-53">
          <mxGeometry relative="1" as="geometry" />
        </mxCell>
        <mxCell id="xKQsgJN87se9uh_CanPL-18" value="colArticlesSentiments" style="shape=mxgraph.bpmn.data;labelPosition=center;verticalLabelPosition=bottom;align=center;verticalAlign=top;size=17;html=1;bpmnTransferType=none;isCollection=1;" vertex="1" parent="1">
          <mxGeometry x="649" y="446" width="40" height="40" as="geometry" />
        </mxCell>
        <mxCell id="xKQsgJN87se9uh_CanPL-55" style="edgeStyle=orthogonalEdgeStyle;rounded=0;orthogonalLoop=1;jettySize=auto;html=1;entryX=1;entryY=0.5;entryDx=0;entryDy=0;" edge="1" parent="1" source="xKQsgJN87se9uh_CanPL-16" target="xKQsgJN87se9uh_CanPL-52">
          <mxGeometry relative="1" as="geometry" />
        </mxCell>
        <mxCell id="xKQsgJN87se9uh_CanPL-16" value="colArticlesSummary" style="shape=mxgraph.bpmn.data;labelPosition=center;verticalLabelPosition=bottom;align=center;verticalAlign=top;size=15;html=1;bpmnTransferType=none;isCollection=1;" vertex="1" parent="1">
          <mxGeometry x="649" y="341" width="40" height="40" as="geometry" />
        </mxCell>
        <mxCell id="xKQsgJN87se9uh_CanPL-57" style="edgeStyle=orthogonalEdgeStyle;rounded=0;orthogonalLoop=1;jettySize=auto;html=1;" edge="1" parent="1" source="xKQsgJN87se9uh_CanPL-20" target="xKQsgJN87se9uh_CanPL-54">
          <mxGeometry relative="1" as="geometry" />
        </mxCell>
        <mxCell id="xKQsgJN87se9uh_CanPL-20" value="colUsers" style="shape=mxgraph.bpmn.data;labelPosition=center;verticalLabelPosition=bottom;align=center;verticalAlign=top;size=17;html=1;bpmnTransferType=none;isCollection=1;" vertex="1" parent="1">
          <mxGeometry x="649" y="533" width="40" height="40" as="geometry" />
        </mxCell>
        <mxCell id="xKQsgJN87se9uh_CanPL-24" value="" style="shape=image;verticalLabelPosition=bottom;labelBackgroundColor=default;verticalAlign=top;aspect=fixed;imageAspect=0;image=data:image/png,iVBORw0KGgoAAAANSUhEUgAABQAAAAE7CAQAAAAoH+QBAAAABGdBTUEAALGPC/xhBQAAACBjSFJNAAB6JgAAgIQAAPoAAACA6AAAdTAAAOpgAAA6mAAAF3CculE8AAAAAmJLR0QA/4ePzL8AAG0sSURBVHja7Z13mBTF1sbf6tldYHenq3dJgiCKkrMgoCAqKoiCigoiIAbErJhzwIA5YEbMYA6AggkRREAQiZIxAApI3Oma2SXtTtf3x/V+hkvonq7u6Z45v+e5V8Tp06erTlW/XeEUQzZTST+IHcQOQj3rYFYLRchDlFWRlaEjgjLsBpDANmzBNrlZW43VbHXO6i2lIAiCIAiCCDUs+x65emFFG9kW7WQ7NIDm8GKJX7FILtIWVswq3ULhQxAEQRAECcBAU7Ngd1erBztGNkJEgTmJFZghv7W+JCFIEARBEAQJwMARbRQ5WfZAF1TywLiFOZigTYz9SMFEEARBEAQJwACQXyuvrxyEw3241XL2vvVW/CcKKYIgCIIgSACmi8r8NAxCdyXTvXaR7DtrZPwD7KLAIgiCIAiCBKCvFByQMxSXoChNt9+CV9hIcy0FF0EQBEEQJAB9gddnQ+UQVEmzGxY+Sg4rXUYBRhAEQRAECUBPMdrI23CG49Qu3onA8execxEFGUEQBEEQJAA9oeqBFXdhsK8r/uyJwI9wi/iVAo0gCIIgCBKASqleWH6TvB75AXVvJ57JvW9rgoKNIAiCIAgSgIqewLgA98taAfdyPa4VH1C4EQRBEARBAtA1xsHyFXQNibNf4AqaDCYIgiAIIv1EQuw74xdjHBqHxt/DMKRK2c45FHQEQRAEQaRZRIXVcaOefBknhNDxL3MGb1tPgUcQBEEQBAlAh/A+eAXRkJb5FgwUkyj0CIIgCIJIF2GcAo7wBzEClUJb5gUYWLnKrimQFH4EQRAEQaSD0I0AFtaIvIdjM6Dkv8Q5IkYBSBAEQRAECcD9wNviI9TLkLL/2eqZWEkhSBAEQRCE32hhctY4FTMyRv4Bh2nfGV0oBAmCIAiC8JsQjQDyizDSszWLO9hquRGb2TZZCsjt7CDoLF9WQhGqoY6HKyV3sgHmWApDgiAIgiBIAO5J/t2CBxR7K7EYs+WPkR93ryrbtI/f5er12CE4hDWTHdEGuYofrEJeEH+TApEgCIIgCBKA//JSf4xdp9DeT5iCKcmppVscX1k52jbSQR6P4xXuQrZwuXiRQpEgCIIgCBKAf4M/j8vUWJJL2Wjt3dhvbu1Ui5b3wOnoAUONW/Kq+HMUjARBEARBkAD8r/wbjtsUmNnC3pGjxTylruXxU3EpuiooRYtdYI7ew9/n5FevVN2qAeNv97BYCUq0ktySTWUUwARBEARBZKAA5DfgUbc25FI8EP8A5d54GG3ELmHno8ilmQrW1xwHGAZrbjVjzWVjWYtVR/V91tAubMJPWMV+slZiVXwNKiigCYIgCIIIvQDkF2GUSx/nseHmx7C89bNmwc4rcSOqujKyC9PQFHVSvn4HfsBM6zv2XbyEApsgCIIgiJAKQH4m3nOVguUHeVf8C7+8LdYrrmXXQU97sUmswLfyk/jX2EUBThAEQRBEqARgUUvrOxSkfHkMt4lRXo/8/Ru9WLtbXhGQE5YT+FyOj3wWExTmBEEQBEGEQgDqxewH1E/xYilHWzeVbk6T50ewUWgdmILczb7CKPNTJCnYCYIgCIIItgCM8E/RPcVrV2kXxaan1fscfi2GIT9A5bmevaK9XPI7BTxBEARBEIEVgPwB3Jripe/kXrI1kf4n0A9jHwRoHBAAkuwL+YSYQkFPEARBECQAA4hxmhyXkmc7cI0YFZjHqMyfxpDAVfhM6774lxT4BEEQBEECMFBEq2lLUDOFC1exvuaiYD2LPpC9gMLAFfFCPCA+hKTwJwiCIIjsRAugSy+mJP+mae2DJv8A9h3mBbDWW+N9PlvvQOFPEARBECQAA4E+AGekcNl4cVLQ0p0Ucf4oluOYgNZ8ezaLv1pYg5oAQRAEQWQfkWC5U622NQFVnF4l34ifi93BEtbGufITdAta+f4DhjbakMrY9QOliCEIgiCI7CJgawCNCbKn44seFLcHaz2b0UWOQJvQxMBiXCDmUVMgCIIgiOwhUFPARb2cyz/2nLgtSPKvuI4xWn4TIvkHtMBsY1igxyoJgiAIglBKkEYAc/SFrJnDa94RA/0+7m3v1M7ffpO8yfkUdiCYLc+N/0wNgiAIgiCygQCNAOqXOZZ/X4rzAiP/mD6gbJW8O6TyD+jI5unnUoMgCIIgiGwgMCOAvAirUM3RJT/kdd1SGhDv27KnZKcMiIdR4kqUU7MgCIIgiMwmMCOA8i6H8m9z7unBkH/5tfiLmJMR8g+4WJ9SWJ2aBUEQBEFkNgEZASyuk/wFeQ4usNBdTA6A45X5tbgtgGd9uOGX5Kmly6hpEARBEETmEpARwIprHck/sOFBkH/8TL4MD2SY/AMOjczST6amQRAEQRCZSyBGAHkR1iLq4IJvxAnpTl5c1NIageM8vcU2uUxbK/9g663NiLNd1nZtl1bFqixzmS5rslqyNquDpjjAG0UuB8XfoeZBEARBEJlJThCckFcwJ/KvJHdAeuVftJp2v3WRR5nztsmZbDrmVywt22Tn53pxpGmyDeuEzjhQZVywMUYl83VqIARBEASRiQRgBLBOlcQaODmT9lLxYhrdzTWukHfDUG43iZmYEPm8ZFmqaa35IeiGU9EVlRV5ZOEKMZKaCEEQBEGQAPQA/XL2nIOfzxFHpi/3n96DPYHGio1KfMteT05IbFNhrGbBru7yXJyCXBWesWvNp6iREARBEAQJQOXwH9HC9o+T6JCuc2ujjbQnoHhzhNygvSzfEL+q9rWwes4AeTGaKPDwyvhz1EwIgiAIggSgWvl3OBwIOvaceWU6vDQMeQuuQSWlRn9iz5kvYqd3dcuPZ0Odn678LyzWxxxLDYUgCIIgSAAqRB/Bhtr+cQyHipjvLkb4RbgPatMjL5K3xz9LdbWfo/Jtz+7Hia5M7JBd47OpqRAEQRBE5pDuPIA5rJ8Dtfq0//LPOJbPw0il8u93XCLaxj/1Q/4B8Tmim9WZzXRhogqbGG1ETYUgCIIgMoc0jwAW9bI+sf3jUutgNRsl7MIPwaM4U60ew/3iaezyv56NQfJRFzL2l+SRpVuouRAEQRBEZpDmEUDrAgc/Humn/KteyIdjmVL5Z+HVikbi0TTIP0Cab1hN8ErKo46HRt71KO8hQRAEQRC+k54RwIjeVuskO6MTatq+Zmd5/e1/+FUqxrnWg6y2UpMz5dB07V/+C94Vo1NNGC2Hxe+hBkMQBEEQJAAdU1hdO4mdjO4ocnzpSHGZPz7qHdlTaK/U5Dp5U/xdf9b87Y9oVW0Uzkjp0iS6iSnUZAiCIAiCBKAT4XEWzsHRqU46y/bxH7z3suqByYfkAKWlsoM9mv/whu1BqnR+GUYgL4ULN1a0tndAHUEQBEEQ2S4Ac4xTcYHs7upsiuWiqddu1qkSv57dggKlRt9nN5lrg1ftRUdbH6W0JeRr0S1957AQBEEQBKEGjzeBVKut38XXyI9kT5dHk43xuiB4n8Qydp9S+beQHSPODqL8A2LT2RFYlMKFxxtXUaMhCIIgiLDj4QhgYRPtZtZfyZm0lnZI7DfvPDVayxE4RqnJLbhDvIJkkKu+iCcnsKMdX5aINCv5nRoOQRAEQYQZj0YAeTs+NrKEnadE/gHTvJN/hTX4KDlPqfwrl0+whmJUsOUfEBN6d3zm+LJoxbPUbAiCIAiCBOC/FUJD/iHmoLc623K8R0+fZ1wfWYUhSkvhc6tF/HrTDEPlr9shTsdHTq9ip/IzqeEQBEEQRJhRPAVcUDNnGAYrGvf7S6W2iC3xQKj21B5HQ6UmV8rr4p+FLALy+Cfo7lCQb4g0jQlqPARBEAQRVlSOfUX0K3JW4FLV8g+bY0tVP3ZhE/6FNkGp/BPsetEidPIP2F1whpzh8KuhtryPmg5BEARBhBdlI4C8HV5AO098fF+crdIcL2LD5GVKZaqFV5J3lG4OaxAUcWsWmji6pNxqnlhFzYcgCIIgwomaEcBcYxhmeyT/AJWnT2jGIKyQVyuVf9/Lo8TF4ZV/QEzgFGx1VuPag9R4CIIgCCKsKBgBLGphjUEr71y0miRWqLHEj8eTaKHUubW4SbyfCYHAT8DnyHFUL50S31EDIgiCIIgw4noE0Bhq/eCl/EOpmqlGfigfi8lK5d92eXe0SWbIP0BMxq0OQ2c4NR+CIAiCCCeuRgCrRctfwtkeezhLHOXWRM2CXTfKm1FZacFNxFXmmsyKBT4RJzuSgEfHZlATIgiCIIjw4WIEsKhF+VzP5R/gNgGMZlyw6yd5t1L5N8/qbPbKMPkHyPKLsMXJBdbt1IAIgiAIIqsEYLSn9Z3iLHp75lc3F/O2/Hv5qqyl0J9NbLBon5iZicGw/Q92iaMLTuLtqAkRBEEQRNYIQP1qbTwK/XBQrkn9WuNaxXuTd+PRSEPzVViZGg7mOIx38nt2DTUhgiAIgggfqawB1Iwn5dV+OWgdlZiV2pX8VjygVIpOwPXxnzI9IIrrJpc5kPa7kgeFOQEOQRAEQZAAtEeO8ao81z8HZYP4zynJvxMwSV2aa7ZMXismZUdIGNfJxx38/DZBGQH/pLBGbk1ZDA7D4iwfAP9rhJ3tlmWATMCEiIjyktz1dJgeQRAEER4BmMffwRm+elgsYilclcOXKluhGJPD4i+g3Cf5VU8eIWuCYaucn6azNvL4KtSz/eu14lAks7PxVIvubowGWkPZkNWTdVETeY4u3471+AM/4yf8pP0UW4Hd1B0RBEEQwRSAeXw8evjqnyVyIJ1fxvviPSX3T2KUdVdiqy/PmssH4ap/5FT8iY2s9OKmMr+DwrhQvuLg5yeKydnUZKoX7j4SbXE4WuMwdWPMKMdSuRAL5A+JuX59bBAEQRAkAO0Q4e/hTCV3ncMKZVNbv9wh8lO5Af9QiadTtWtiP/pTEfrJ7Ak02sN/WC9vjr+digh2QQ5fhgZ2fyxfj1+QDU2lZsHursnjWGe0cXZiimO2Yzabjinmd6igDoogCIJItwDU9NfYINf32ynfZc+Jufx99LH1eyGMlATgHzjApaercaP4yJ9KiDbSnthnCuZZcmj8Bz/DQu/P3rL943j0gHU7MrmR8ENkL3YKuqhNJb5fYpjEPrMmxkuomyIIIp1UPbDiYyWGTEgAUusTjjXQ/EYfch2nD2l7LEN/wrX8i+Ex68XENkfXpDQZVju/zJ38K8MD4gns9KMGDMO6i12J3H3+6Eg2Wx9dcdv2P/yKi/i7/G7bayj1RE98kJnto1rtij6yHzowloabF+FseTYrNyZZ7+Z9vDVBLyGCINJDxTloq1R5nIHXwvDcrK5sm8HVKm3mAdSvYkPdSipWXzzgUP4htalPobspEjYmp5F4wBf5F+EXy1Xs2v3IPwDQ2Pm5K/nNqORTYFhspINfn56BTSPX6M0/L/9djkBHsHT6IU9hY8o3GaOjneg1RBBEWhigWHkMpCINArYEoH4Ke9LFPcrZsxWHidtN0zdZm/oLe448yhy0bb0fXhrH8Ll4EdVtXxDFQ3ypcZpPZfg6ttv+8UmIZFKjKDiA32+slWNxkpujEpVSRZ6rzdCX6FfULKBOiyAIPyluhtaKTR5b9UAq11AIwKIW7B0XL/gf2BHmVWUbg18U7A92vugYn+2L+DuYvy+/SaFRHSrH80nFzbz3UMTwrv3+oeioTGkQ0YZ8VM4a3K70+EBVEdqMPbtzrTEsWo06LoIg/CKpfrxOq+hP5RoCAVisWx8imqL17ex6caS5KATlsAsP5TY03/Bjt23NAuM+uczmJpg9cWJyofGMXuy5oy/Y/6l1SoaIv3e15Rji20R7KlSVd2tr+aPRqtR5EQThi0o4xwOrA6hgQyAAky+nnFB5GlqYT4QiSfA4NBW3bin14U5MH7BzpbwDVVxZyZFXslX65d6mIxFz2TLbPz427A2huC5/WVuKswMz6bsv8nGD9qt+V7UoCIIgPMXo7OBgAPu0KmpOZRtwAahfneJIlcQj4gTxawhKYAlOEGf446l+BJ/J3oSatQ9V2XN8AT/eS3/lONs/PTzUa9Mq63cmV2Kwx/n9FAcTu6dipT4grRtUCILIeLzasGHRRpBgC8CiFuyRlKwKdoa4OQRpbLfJK0Ub8bUft8qvpb/GZuNIpUabYzIfy+t75vR427/M3XlkWJuAfjJfzO51OSabno65FnuTf1PUgroxgiA8ohLO8shy/1DMt2StAMyz3khlNZRcKo8wxwf+ySvYs7Jh/DlfZGolfkvuSna+J+HeG8v4A9ULvXBbzMNvdn/Ljg6l+Cs23mSf4rAQt+Au1jz9LhuJhAiCIBxjnIwij0zXNbpQ+QZWABp3oo1zg2wmOzr+U/AfnN1gXuXPGQvG6XwpHoR367Uq4dZdK41BHkwGSmY/+3sI02UW9dKWyPAvRc5l9/DZtJ6GIAj1eNlDStoIElQByA+Xt6Qgqz7N7yZioQjr7X7cpag5nyzH4VDP5Wxt+QafpXdUbniy7fJsFbLIr2Q8a30SxGQvKXG4NZdfRt0ZQRAqMQx4meHhLJ+P1yRsCkANzzlfEs/eMntv2E6F+qeELjKeshbgeN9u2IF9x98vOkilyeR3thPj1AlTdrqig/g38oqMCrdKeJ6PLeLU7giCUIXs46lEM/gpVMYBFIB8MByPJsnXzXNTO7s3A8nRr8LP8mqf95Uy9LGW8tvUNdnEVvxi97eR0GxG4N2sReiYgVHX25qtN6DGRxCEIrxO10w7gYMnAPViPOBYe0yMD/EjjXIoBEZXPp89jeK03LwQw/kqY5CyL8DvbP+yYUhq5yJMhJGhodeYzTaOpRZIEIR7iuvC620aJ1NK+8AJQO1uOJzOYzML+4Yg7YsP6IfpH+NrpHc0rK58g3+tJj0Im2X7p/XDEO/6k3gpo/fMFssv1cl/giCyl6T3iVrytDOpnAMlAI2D5SUOrSyRvdbtoMIs1vnDbCk7NRDOdLUW8Ofdf11pSzJIAEb019g1GR+GefJ1/WpqjQRBuMSHXbqSJoGDJQCtux1m/4vh1HDs/PW2JI0LkytxE/JcWalQOI0ewWXaT/pV7tYhRuyfkRJ0AZjH32PZMTbG2FP8durcCIJInaKWfsxksc7GwVTWgRGAhU3Zuc4EvDVIrM72Yox24nPkKzjApZnPrOZaF8xT2YbZ08Yi3i11A1v/gN193bUDXUW5+ofIpsmG+417qHsjCCJVfDqqjcn+VNaBEYCR4Yg4svBgYmJ2F2HVA43R2nTXiZBXWb3EKYmVsRniCHYeNqrzTzbFl/yrwqapXs7W2C2IAJ9Lq/E3WK/sikt5F7+JOjiCIFLUBuf4dCeaBA6KANSPwGmOrp8q7srm4qtTRb+rYpU816X0Mdl1ovn/C2lpjo40wiPYpdDREyIL+MPFekrfgXYTweQW6QGtJsZH+daZBYmH+BDq4giCcI5xDOr4dKsm/HAq70AIQHa9IymTiAxCMnsLr6hXYim7B/mujFhsTLKR+eQ/MyiWxMXNsjk+UOhsHm5K/moMdTi+C4Bttv0oAd3Qb9yNwVkZoAwji3qBIAjCIb5uzqBJ4CAIwGq1cYajELmtZF3Wfh+10b+1PsEhLs18ww43B5XuUWLFfxZ9caJcqtDpqnIEnx09ymFHkLCtNwI5AqifI7N3lFqz3ipqAYIgCCdU9nPFNOvvfGCCUME/dohWXOYoQ9rs+PPZWWiFNSLD5YXMbYak1bhRfLTvn4jJaK1fwu6BurG1dtoM/k7kZvvSXSu1uzHZygteXekd2Ku+r02UWIfNMGUpK0MpEoiCs0JZAI46qO6zL1FrQmH70s0gCIKwCe8JH4+VlLV4V/EVlXp6BWAlebGDK8u1i2FlYYnlGVfJO103jlI8KJ7AThu/rIg/p7+jDZOXKTtWjqF/8jT9Yf0xe7kbZaldw5HACcBoNfaBb8eNr8R3bDH7ufyX0l/3XrPFunWoPBSHoY3szPzZN10v8ha6Z2VbJQgiNQb4ezs5ACQA0ysAjbNlDQdXPhlbnH3FFe2pPe76yDPJ3sy5ZesG+xfES3B14cjIk+im7EEK2L2JwfxGYWOVoUzYHUAL3Aigpo1GXc/vskp+qk2vmGlvlK0kjgVY8OdX9qGsk+yCXqjhsYcn6HfGKSkMQRC20Itxsr93ZGfUvnzD9uCVhPxdaVq2Gq7fRzuhclGY/JsAlJc7uHCb9kC2NYrCJpEn0d21me/lUPG988tKl6F7US/rcTRQ9kD18D6fxq4xF+6nadofO9KCVWP8JvTw9Aa/4z28K1LuIMQv+AWjEeHHox96e3k+MbuTTxdT6MVGEISN/qIP/P6Yj5aeineDVxLiUTyqUFhfzZ5yaeI30U7l8/3/K5sfig4OAuS+mMimBsGL9BGRRa7l33o5SBwZ/z7Vy2MTRHPchLjCBztGzuUvFu5zXRqzvctZ2xWkOjNawbtRL4nPcbw4WNwo3H8fJsUkcaE4QPbHIs/8jeD1Ig6CIIj9d28D/L+nRtkA08BfYzZnO5B/f5gvZlMZGYOwgg11tEHmf9nNns5tEh/j8qi33eJRqz57WmHynQgujqziN+/9+D+rwLaS2RmgWsuRr3j0FWuxibKDOFlMUbqublf8HdFaO5p5lVa9rvU4dXcEQez307ke65wG0dm9sAaVffoE4FkOrnoUO7OmMRzHF8g3XK/S+pA1ModuTajwKLHNHIr2crrKh8RDfKF+0l7kfhXbWjJAI4DGHa7PZtkzX8rGZq/4D954HZth9mJdsdwT44P1HiAIgti3FBuQljOdcrQ+VPZpEoB6A7Sxfc3WSqOyo3D4IfxDOQUtXZpZxI4Tfcw1Kj0T8+PH4GysVWiyMfvcmBjdwwYXaXsKOBmYRbzRRvJWDzrGDegnTor/5K3v5lTRGrfDg7Jkz9epAoIgiH31EwPSdF+aBE6XAGR9HVzzxqayzC+Y6oV8OJa5Toa5BZeKtuY3XnymifejTeRdUFgX8hRtMX/s32vFtGLbwbQ1MGH9lAfTv6Nymoj3fHF/t3gAzTFVud2DS2+hLo8giL1jtJFNU7+a/eHi1h30w6j80yIAnQid5CuZ/wmkn7trJW5zmUGuXD7JGooXvTssb92O+H2Rxuwtl+sK/04errdW8Yv+vp/XOtju85oB2RhknKFgt/Y/2cHOE5eUxP17BrFadMNjCmv2PxL/Jl6fOj2CIPaG5WYczpJD3bx3MYDKPw0CMFoVrWzX0czS5ZldJHoHPouNdp2kV8rB8etM02tvS9aZA61OULkmrQZe4j8UHf3/NW5TALKtquVKqiJWPqrY4mrWyRzt+3NUiBtxNkqV2qyMh6nTIwhiL0TQz4WCmy0+wiYX15MATIcAjHRxkMEto8f/qtXW32CznCTE2Xsss9f11/Nr+eF1YpboyC5wNfj+bw63pvF3iw4CkIcDbSregBw3pl8EtaNcc2Q7c0F6nkV8oB2JjUpNnsnbgiAIYg/w49wMfchxsPCxi9s30DtQHfguAHGs7d/HK72fsWVRmd9WvpINUrYDSmPn5a7kt+w9wYpCLPP13IZ4SOHubIazreX63UWNbH8crA5CJdbO1+5QK/9Y93hJ+p4ntsQ6Tqm0ZxhO3R5BEHuUcO42YowF5HhXL00aA/RfAErbAlCOy9QNIMYZfBmGo1Cx2Sge5EuN0/14gi2l4lY0w1iFJvPZMGuG7dj4NQj1WHa5VDnq+r3Wzftp/H2TWJE8Tm5QaLD7X9P7BEEQ/6VOFdbbxeWLxK9A/Gu4WAsuz1Z25j1hTwBGq6K57d9/kYmFUNSST5Ef4RCPzB8qx/HJRc39eBLxqzgTx+NHhSZ127/8JQBVWUleq9DaIq17EE68SayUXaFwFNKivcAEQfxvT3Oqg/7+f8XbfwYfduMzFy7U0LtRPfgqACOdbU/yWfKrTCuAaDX+gjUfx3l8m+OtBcaz0aq+iMAp4nBcBt9TsrCf01+bfKDrzTt/sQ29g3LgYWIlzlG4m7xHUQvq+giC+JeEczUBGxn35x/GuXqP0CSwvwLQsr0DGD8ktmXU0+fwi7XluBQRP+4lr9B+4jf7csh2UoxkDfAwfD2Zo+LHtNcnY9epK0M5UKwOTqiKSbhdXTklb6CujyCIv6MXMzfps36KLf7PH/I+d7UW/fTqhVQXPgpAZjvtI5uUUeHenf+IF1HNx1sW4SF9Pj/Rj1uZprjFau3jlP2mso3pr1E3KUz/xS3xgC13EI/gA2UKsF9BTer8CIL4G/1cDU/8/7jfllI22YWd/F29qSp8FIBoZvfHyS8z6MnvYl+gif+3Zc0wSf/Yn4zniRWihzwFK315sAXpr1J2sTJTU8XjgYtYyS5Wth84L+d86vwIgvibGHA1+SrH7UkMptSP05FwPgrAXDS0+duKxLwMevI6aRQqp7Il/OFi3Y97xT8TLdj1MD2/0cJ0V2h+LfRUZGqndWlAklr/A9OUVyszNiQtB74TBBFIeH15pIvL18e//+tfkp+4WrF8fMEBVB8+CcDihraHfX9WmGUu3OyQM1xaqISbkiuNCx0k4E6dcvOJZEOM8u5IOgCwZqa7UnLPR64aS3J4YlUwA098yCYqMnUo70oNmSCIP3u9AW4+Cdn4v38yJ7ZiugtXIrn9qD78ISdpf9XUYiouAMD72o2x3/TubAQau7JzgHyFX2Zdk/BBOpVuwSXG83KEg5TfzkhGZqS7WuQANUNacmn8keAGH7tCHqsoW+UAfJ0JPVhBtbxqsqrMZYUyF2CbZSkAM2dnlZJ1O7Kxe6pTJabnFGgFVh4MmccKZSnbJXNZHUTkDrZTxlk5BEzxO3ZTV74HKlcrtopkkVVZ5rDof75tIbSd1g4Zryjd/kfmPri73bdy7L8Fof3swnuwNhAjKBR96T7ZgXbnuuQSKi4sYNeY3wJA/Eu0NK6Qd8NwZa+dNp2/G7mpZJ33rpuLcBw/C494ku9wUbrTJRe1sJqpsaTdEeRXY+w3/izU5PHrjcv83SeuimJdtkq2YS1xKOqjDjTrP/3T3/4fqEACfDu2yt+01VhrLYssjq1EeWZ2Ska9ZAt2MKuHg1EP9RI1cgD8p0zY3/739z8B3MIGuUZbjbX4RfuhZPmfF2TlO9BobjVjzdEIB6Euavw3SP7+OWkBYMgF34nVWM1WW6vwfXx+JsUTb4dGLi7fJr7919+Mx5MuRhTbRhsnVpDc8CH4ZQ3bL8ZsF4BbcId4+W8dZbk5ovCtyH24yFUaGYZzkqfpD+uP+jFeIT7ERH4dblV94omclu7Ksc5WJmU/DnYYJp+IXIUCFbrB6G5+EqYGWKeKOJ4dz7okWyFi692Sj4PYQbIzwGCB78Z8+Z023fo2nUf7qZTBySPQQXZg7eUBKawk0VCH1ZGdASAJHsdczGbfV8wu3YxsIdfoJE9EJxwh820rlcpogiYSDADfIeey7/C1mIqK8BeGHOhm/kRO+HcZmGv5fLg4dVwbiDtAeA7jr+BCm6/YJuo0OX8ffeyJLlHDufX8WrkbFJdTuXxWu3fPo1xGazkCx7i+w1rcJHw6Z7la7YqH5EClmwC6izSnCOKr0ECJoT7iw8B/rT+CG5U0/rdMF/vtCmtEXH1GWMJ+VtHa+aW92VnohnwVClrOYp9aY4O6znO/RKLttVNwMlp5sILYYrMwTo4TaTnWseqBFa7OTY9sLYnb+mGe0UP2R3dwJW5vxVi8L77xdo21x+Tw3+Fi44V2amzC//RSt+N+Fx6tFocGcSOeO/Sr2VMuTawSjVR6xIyJ8hS7n5wilqUC8Avr2n2LX94Hj6Ke6/t8y64xfUqnondgT6GDImMJUS2906bRRpqaj5MlolXwJ8MKaub8qkQKlYgaqb+2+Ns4x9WYw4i4rWP7jDbyCvSB+j3zP7C3km+GKrU90zto56CP0tOu98wiOQ5vx3/y+cNmPtq4MnCZGLnfexzKrpYDUazc+Y3yOflCWA9K0LszN1lPS0X1/90gWtws6WrOUDs6NgMZRvAEoGZ7CrhCmMhGVsmeosf+xj7FB9Em8m5sd3mvLnIuH1VYw4/Hin8vjpSDsF6JsS/TvWoucrIiQ0+FYS1U2Sa8pcRQcbRjwDvMHvxrOR+D4UXKpCPkCO13/rLRCiEgWtW4ji9ns+TVPsg/oBUbxlbwT/XumZQsyGjDx2GVvNoD+QccwO7T1hpP80PCWDKau8x7n+0pP0jJUrgaY7foSDg/ah52TwQoybwB2f0icKNoEf/Uzk/X7YjfG2mMd1yWkoYhkVXG9b4cGCfjYyo3wnD3yX2UpSZJ/VHUCMDtkffDEZjW64qaf4/gPiPvasxkn8HbZDVVMFguMCbqHYJc29GGfJS2Tj6ORr7eVsPJ7Au+XL+yWjT8XTk/lL8v5+F0TxNvFcirsEp/wp8Mr+qoWSBPd9X77i3ts6t00Ojjy1sw6wVgFZsv+a1ZVjIWXqloJB5zMrZV8rvor3WB23TZXD7GF+un+PGQm8rEHawJ3K56O8uXfIb76MDQRYUdNs7mGqK0k5gFNSvYTgrm8xkH6+PxtTzKl5sxeQqbrX8SbRTEkihswj/QlmMIKqfJgUbsmfJf9StV5dhMC3n8dixGH19GM3PYtdYKfUCYRk53nOZqU+CunM8cCkN7VDV6gPBcANrcwWpty6ZiYTPRXlxUtsn5lbEZoj2GYJNLBxqyifzzaGM/ntVcI/qwY92c5CF78ofTWVs7O6j5VpRvhCZAJdT42jqAoxUav1EuY6f53OJ7aYv1EcEa6yquw1+NLE735xWAauwZvtg4DaEk2ph/j/vtDnQoaZy12Jv866oHhuZt52qylU3e22dzfI67JUaSJoF9EIA2OxdWmjVl8rvsbx4tUh/Hs8TLWiM87npd3Enaj/qThuGLCJwm2smrIVI2cINxQRrV0NFKzKwTIUqMHBmjZElGpOKoYD0XP0T/Bo/4+br+f3LZ0PKl0Z4BKYhcflNyOS5wlWJKJY3keP6N0Tpsnbk+QJuLdHh9XMX8cJy1U1gD3Vz1vuP28ZnqLqVWryIOwmMBaLeDycmK8tjB7i1oHHe7kg8xIW6wWrBPXXqTy66Rq/glvrwEkvFnypvgo5S7gZFFndP2BatGAH4WpmS4Jb+rOX1ZUdmpel33wLy0elRXm8BfrlmQ9nJobyzEw6qzdbrmGDnHuDdEK7OYMYyNQbpqswYm8duCPxWsne3q3Z5M7iuXqLtJ4MryTJJoQRGA2bAg8wPWxLx7w3Y1xhKrzJ7yZLhNT1IdI/k841g/Hn/7H+IsORCpJfvJs8amaQdcBGr2sk4KWbSq8bdTcB6I38wmoijtbgzeObeoRRrvn8eHs5myaSBjLlfeyecEc7Xk/8o//qK8O60CLILhxujAjOHurZjcTbROL92y9/8opsFV0nU5EEQwBCDLzfCSWMiOFX3NtWqNxj8XLdl1MF2aaSWn8g+Mg/0ohvhbkZYstdOJq+OddIwTFzZS8o2fxJSQRexXSqy0CcgYhWY8hYfSvtrtPzS2vjPOSM+tiw7i03BboOdbWmlz9eCvzmJ8JIak3w05kL8d5A00egN32WD3s9GjXLrLEHFMcR0Sad4KQJtJQGQmjwBuwaWinenNcWbl5pPJRnjJ9fTiWXI5v9+PyamSdeZxeDylSfAOxp1pCOE2SszMUZfm3B/EDKgYq9b1QwMh/16XVweocAvlh/w2/2/LT7Tmo2PgQ6+QvcnvD/bkJr8fFwfElb76B8GdP9PcSXmZs59JXm28O/eS54DwVADafe1lqgAslyNYQ/Gilwf5lG4WF7N2crpLM5Vx+86V+kAfOt5ycYPsn0p+QHlb1PdNBay1EitfhS5yd+FbJU/eJu1PwvhIeW7ASpdhuPGUvyOS/BJ8hqohib7bjTeC+07QB+LWAIXSaXxMQOUyc7nTdm7J7/v+Qf6XLj9TaRI4IAKwOCOf/8tkq/i1ez7jVy3mgvgx6IffXJo5kI3h3+ntvfc3/q48LoVkNjnaGN8Ti6gRgHPDF7zsh+CUnyvhMzwIk3V7+Jy5mo/y7cXN+MMYGaatdvJc/lkwd2kWNmWjAia4+up3BFIot8dhrgyM3d8PNmzHl67u0DKt63FJAP4/tZFpqwB/0k4VJ5Uu96/HFO8VNJHDXE/cdWSz9dfzPT8QKj7bOiaFPE71K572uR7VZEtcFL4Alj8GqPxSfwkNxC2BLeLB/BF/+mH+HG4KXQAeb30brRY4r/Iib6UljdC+9f0w4/QAvv5djq9ZNnb5ukwHDYvGAAMhADWeWcsxXxLNYxP8vumG7fF7tCZwe8g6Y+flruK3oJK33iZWymOdj1my83QfM7jXzoeKhKux2G/hC2GpRrQ2SOczGK3YS4FeTXYD934ykfFRuCyUvWhL7dPqAUtWo9+c/jHtPb0/5ZjCoO3szpF9XfU/SxMrbQT3RJS78vKcgGwNy3IBCHZQRj35D64TNaeqNX6DCrFRiAf5T8Ygb32N/6wdjV8cv8+e9lqa/sX2Bkrkw6IwhnD8F6hIz35YGjvYSnJM2g45s8twfom3N+CPYnBo+9H2uz/2r7Xvn+K67OaAllRh5LVgpYTRu6OGK/Ew1s6vRAzutlfWNbqA8EoAsj9s/7YeFVfAqCvf4JO9XSMR+03r6lgCHsav9asIpJLxK/ZjKOvfwmIFVqoUp+3QKv0BBH+FD8NzencPy+BOXB/qXqgrfz04YzTJR1EQ2JJqb1wTqMB2mcxHjrf5O5eTwJQN0EMBiJ9tv20OpuIKIMdb8/lzUQ/3DsZ+Q3dsdXjR7X7lb2JKPkusVeGsfKnEb5mmTzu9AxsaimKOsDHVantjmp/N7gl9H9TPp5WS+y/Ndugb6PZ6r35YUHypXgh3pzuvEfPt/TD3Y5cna50Z+FmC8ArApP31aG2puAJJDi7XVulXebeDUPzCznI4YV6YfNSnLlXJZhhtQzirnq1XYcWqnRbf89hLQT8l4a+3ZfnbXvjK2+G14B8WZoPrjFMD4cfDAS/NfPZ8UFzZ1Rv5rnpe2+N629bje1euGrwnCG8EoP0NCawDFVdgKWZPG4v4iV6ZN6fhcqejAj6dDaxEvFjrw1ntUolwZWkRgBiAMCV4OMYYptqkYeB9D/erlmMxxmEku4/dwO7FSIyXS10ux99HCMlX039mgzwJXQMfRyf6c6ynjSpzOQEcGevgx+Nd9xWEJ+QktvKYzfM3axoHm2uoyAIrBppikv4Jro//7IV18YrelF3nSFQNwwlhEYC5IRWA2nqpInLSIwB5yNrXbcbX5jdKLb4GL07P3oYpmKx9F1u5B7mXV9Q42ZmdiOOUl37V5Js43st0+jYkzWlhiCPrXgRgU0PBAS57502x7xw88zjtIVd3O1kvjpeAUP8GAeyPAVodqcCCDTuVLeUPe5OKOX4TvnZ0wfG+nApSU4GN5LZN4axvNSOX7ABqOXb6Svm8yrMvjAtxumIPd+IddBM1RF8xKrZkj6N9u2M/xp8XvUU1dhrGKc6DcIx+OwWJjdZ2ND8h/V7k9nO5pOFjJ4ebJlbJpa7ulsf6UOR4JQDtVw1NAgefPNyUXGlc6MG+vGTkAghHweVH9vsi9ybYZlSEs7JzlUwBWwY1G1s04deoMlVcRz6h1LdSPGDVEf3FV7ZezBXmJ+KM8oPlCOxQKG3uKGpOQbJ/5N0B8MHtDuCxzn6v0U7gwArAWbYb+HFUYKHgAPkKnxPtpNpsye8Od2320I/w/FkVTGXJRGhfJUo8Z+GZjN3JvsModo08WbbHYbJqsqZsiHbyZHkFexpfYJvn979T1Uq3iucUTsJa7DnrEHF7wuHzb/8jfm1FfTla3fdI8oWM2NLiMaxzuo83izZGO1cGzPhUhz3VeJdl1sk4mCJHPTmANsv2WG4rXl/86rN/lbEzC+vFwk53e7TQVpvO343cvL/Duh22+zf03o5W2twBb9flVFaSIGBHWMOkZIcSFWGE4FF/xThMik5f9++62vz3t0RR8+Sx7BSc4Nnu4sLk4zjbvRn9ZKZu1+wv7ELz21QvLtuI8/ibGAUlr1fWWR8Qf5Neq/sjORjXpPP+kQHu1g6ziU6XD4j5fK2rTMJM9scDFDmq0YDYMpi2a6G3z/4V8aXGGVlYL7sijfGOy+xJDOckV+h31VG6zzB5iZOcgKxXtKGXxVSgZhQlvJ8Y5UqW3Qd7BHA33sYJooG4QUxat2+pLmOL48+IkyrqsGuxwiNv+uruF8LksRHK/Pk8cnjq8u/Pl/NXsi2+UuMOuz8kOdt2YQ57Uw6T57LTWVe007rInnIA7pCvYzZ2eX1zNjCtp6cw2d+lBecTutLtGCBoEtgbAQjLQZae3r57WF9+xKcUtcy2iin5XfS3jsZcl2by2T2JFbyvuomZsk2Ojlpi2kVellKuGnEb5jFmFaOXVQL7dOV4mTUUA8TXTpacl200R4hmOAsLPPHJ9dnA+sWqzl9mz4peJXH3duIlogd7RolL9YzLA95iFuIOq7PgooN5bvye+Jvmx+ZUMS82Pf5p/G0xPH6BOFIYWhd2L7xMDl9V752+AogeifquDGzP/yIFqeFyFSCa8MNJsHkhACFtrwKUR+YrSbzLnL1yj7Pm8xei1bKtchIzRQc2GBtdmjkI7+nTjDaqvDLfcHQA2Xkqd07+Gys3MCIqXagQr7kBfbYv0UQMMdemFhriI9GWne/4DJv9912nulvBVbOAKdoty541r1KWeCVpXi2fVNImr/eyxbvTuXjUaizaiOGJmfsc5dsZm27eLRqhnRztWebE/ukrBs3tWNqXG7an8N6YgS3ubksbQTwSgNo39n+fo2RCVm52eEEEl2qrjKGBfVV5pnDMV3Mb4hG3kxLsaDmXjyqsocSnpHQyBliDe7gK0FJz+km2jwAG8YUdY+eLk8QvrmxI8w2rMVO9Jo1Zt7gKtsugJO0OG2NerVgfXYcXFPhVWz87gPEUx62RuuKmxEr7l4h58fO0w/AapHp32HFpmwTOhcuUKime7ZvEBJdipV9oTg4KlwA0ZzrYP3eZiulEmcrkTJEcwRfpJ2VbFW1NiJtlc/mx65oeElnOlXTN8c8xxcHPh3jYl6n5ILBCHB4qfA/eZ9VC1sZ8Q4WhxDbzXFyqeFXX2fxQF2L7GiU+zDOHqBcm4mp8496Ks4TxfsDeKm8sHkplsjz2m7hQ68KWKXepkB+dnrIoOgnu5tLK2cQUuyq3qWBq8eNJsnkgAFEhP7XdlJpxBclg5BcpDq03YZ8bE73dWBBE4j/HT8eJWOLSTDHe4bcocegmB8LjeF7fq3KxcqgJKyBopfhuQacUJ373LGtelMcqnQqO4NJULzX640AVj4SzPdmqUJHsC/fJxVsbQUoYVioHmAO3/5G6gdiMSu3xtnK/0jSUYbmdSJ0qYil+jE2Gy7RVko6E80QAgn3i4JqrVHyXs3dTDoJTtMX8sSKebVUlJos28kqXuc4YHtTPVeDLPDnRQYx5l8Wdso5lXimOFP1TWWO0zw+o2VpXbFZYYANSFc3yKiUO3OBycnzvamkLU7GJIzhjgGuT7eOuxdumMjEAitPasx7pKI5iHb1cmkh9HG8nPndZZr1r54NQLwDzvnSwDqqXipSM8m6UpnxxHq63VvEhWbcioCL+nGzInnV3bgV7ppqCs1/Z0w5+eyo1NMK2/LvcizVXscXJ49wuQv9b71VL75bKdbwtVOxk/EG86l0FmJ/gQ9fl06OgZiCi6WetS+lyRR/gw3GjStdk02hV/wvEOsPlnn+rYryLZx7v0v1oaSjOew6dANxS6mBVV0ReoaA5rWZXuOroa2AUn2t0ybYKi5eYV0Vau8raxSsUTAOLKfbXxciOAXkdEEHnfW/kHwCULmN91O3pZOeldJmS9bDWUG9XrbIbXZ8SHMnpnf5gkhsix8V+U2dPPIZHlL5826ShTFxOorJZZS6yUuR86nbhgkaTwF4IQIC95+Cqy1WMIZmj2XUuO/vWchp/36iXbZVWslR0Y6fh55Q7gXMV7ECT0n7eMC2nJzU1Yr8sKLjAK/kHAOY0eY0yY6dy56dQ56Gvgjt/nZjlbTWYa/C6ayNnpT2aduD0knVqTYrb8IVCc74LwGq14XZ15lg3F5fEHW0f3NNrp1thdeooPRCAhR/A/tLO/PJ7lHQ0I7TTsMmlkT5yuXFfzYJsqzjzE9EMNyG1JLCG0dG9B5XH2D9BRtIkMLE/tkVOU73279/En8dHikxVlo4/aqLdUKTgzo94XxXsAdf5BY9J+4t6aPwH5TaTyUEKT5z2XQBWnON22ZR0m87Z7fW5WhCTDIVfAK7b4Shf1gXFzVTcPjYBTeRTLidmqsg7dq7UB2TdhoDd4tGKhngllekgS8HJKpvK7EcMO7FOFWpsxD5fLUPVnlu9l1fglShR1HV2d3pFRMGriy0Tk3z4vFzL3I505UROT2s4fS1e9sJs6RZ2fXgFoOtdtAvEapft7xO3yxcYpYP2QgAC7CUnfZn1kBoHRCx+TbIVvnRp5kD2Jp+pt8+26ivbJC5CeznDcbWr+Tq3P5pSpbQ9NTZiH6+mT+Jv+dJiNrIbFHl84t97Tzt9pjxZwV3f9qlCXnFtIZ0CcDcu9moxgTkasxWZauBvBs7iZm4lp+vxP5Rtkt+5NNFebwBCvQCMLYaDtSWyp7pcT6XLxUlWL9dnLx7JZumvqzmqLkyIefEu6AdHi52lkrMfzOn2s6vJo6ixEXtlR84Vft3KfMN1Ps3/UIO3dvLzaEcUK7jruz6V0kTEXJo4yqFAVgh7Sfzq3beKvEeRpYhR289SSbreQBEZ594L12cCs3Qeo5fBAtDhGCDkiypX3iUmihbsBgh3T8POy13Fb82rlGW1KMV7BU3kMGz3+b5J2M4fKY+kxkbsledUL9ffBxaGKbLkaBJYU5H3baFX+f/+h3JMdmnBKG6SpmjamfOAl+bjX2Cuog60jp+q2LVwWhVT8OnkfhSR0U5gbwSg+Y7c4ODaBrseUurLbvPxZEO85HKNQCEewHfZV5Ebtsfvka39vqu0vSeMdaSkzcReENZDvt5uLBYrMeRsDqSTgvY2xb9Scr0KEMk0ffSxD7Zu8PgWL6kxo/koAIs6w22+jHFKWt9qLHRpooHegTpNDwQgdmqOdpjJK1SfzVe6WVzM2uFbl91kreyszEp/+H3H+GTb6byr64dRcyP2yKjENl/vJ+VIJXacJHWOoJ0Cx6f6WEruxWa6Rv1f9foG2ntqZlvYgf4Viusj4Bx87u/HznjX5U8bQTwRgCgc5SgtC8Or6o9kMxeIY3A21lLlhIBd+N52qNEkMLHHNxNe9L3be1vJC7xq0UF2f1rUFIXuSypnun9lZK5xnfAkPet+V5vTvL5FTKjJB2j5NwJYyXVmxnWq0uq4X0koz/Z3+0zWCMB1O/CYo+sPks964ZZ4P9pE3oUyqqDAY1sAymZUWMQemOTbura/xI3JlOQDlLZ3VVoqdsGvjQlfi2mhy+sbVYv6H07sUy+Tif8VtUp81f0qFaOH2y1IbJyqco39CLctvnpqRzES+xGAQN5I+zs7AUAO5Dd44di6HfH7Io3ZW740ZiL1bsG2AARt3if21IOMTstdP1Fixn5aDQUCkC31uYx+dOtw8hD/a9b63J/PFiVWfMuOKt1Pmo5T6A5tBAmqANxSikcd2ng46tFBXyXrzIFWJ/xA1RRcyu0LQFoDSPwvuyOfpaXj+0rFucBWa9s/VbBsXfosADXX5+hK/wVgReE3ftxGrHZ9hpWPAtAwcIpLE1tNhcsPrPGuTZyWjtHlLBCAgHgKPzmzob1d1NwrBxOzREd2AfuDqiqYlG3CGtsCUKPyIv7FNz5Pa/5JTKjIFcDsChwNjRU4/au/ZSTdp+bxXwCu2OBXMqyF4RGA8kxUdmniE1SofKtjo0sT+RW9qfP0RABil+Mj06PWJx6e/GiZr+c0wkPYRdUVSOx2hFWKD6TCIv4loT5P261nKLBR197PqtaCgtykbKO/BRRGAcgW+narReERgHA9YWqNU+qPhY9dRydNAnskABH/TE5w2tAjX3l5+PfWhLgVzTCOKix4SNv7tZO0CpD4d0x8n647s/kKjBRVt7W3d3c9FR5bPs+DWO7HZuv73hst9u1WKrYuVfbD0eK6OMaliURisuJ6cv8uPz4/S9O9eS4AAXYtdjq01CoypaCml66KX8QZOAGLqdICFkK2VwrJA6i0iH9Qzhem7d7zVBjZaSuRB1MiACOb/C2gnB2uX/MH+V2p8nff5LGKZNO+JMdPnuN68c1njvXAfohPhdvPi0heP+pAPRKA4hf2mGNbzXOmFnj8ihdfi8PlFVCRNrYfr5+eIjdORYtMCiFpf6l4ETU44h8sXrcjXbc218JU0IHamgRWIwArfE6LVe6+brjftRrx7UjByPrQtDL3k6Xq595241PXbx5KB+2VAATM4SmMtTXJ+aaq1+u8KuLPowF72vWS1K5Yxh+oXuhvcRc25V/Kj1EjOwUgM6jBEf/gp7Te/TcF0W9v4cvBKtzN3+lv8eS5v1+B31VqbfDtViXhaGJFLdHSpYmduV7s1HcvKg8vbALCGwGIndqAFIZ9G1XMLPJ8fEvEzKHJVq4zMVXCrbtWGoP8OqOWFxlPRRYi4xJYJmkEkEiVNem8OVMwXcjsLeOvq8LfTTtDV7/5ft+wotS3O+0IRxVYrsf/2OStCQ8+L76A6xKM0EYQzwQgYovZrSlYrGfN1E/23vHSZaK7dqrbEQRWW77BZ/lwtHSEX4pV8upMPMCmyP5aDhKARIAEoIr1YtKWxGEqpkIrkAxd/VbxO/VTJd9kWeVwCEAN57i2MdYLx7aUyq9cGxng1/BNFgpAwHwqpVG2KJug3+1Hw49NEM1xo+vFpB3YLP2NarW989M4ls/DC6iWmSG0brf9gqAGR/xDGG1I6903K7BhSwBKFSNhYTwTiVX3eQywxLdR0q2hSEtmdHE9+lyRnOCNb9p41yYOLupEvahnAhAy9wJnB8P91yobxj8v9GOl227xWEUjvAzLXTfFBpWv5LeoyNX1Pw3wYP6BnIpWGRxDSbulzypRgyP+0cGk9bRvqWAMx+YUcJVsreEdfk8Cl1Or+keMu98oMT2x1RvfkgqSS1u0EcQVOfv5ytmgD2SfIpKC5W6RJcYlpg+Z+8o2YQh/QY5gR7syU4gH+UXsBnO8Os9qFuy6RV6fBZ1/uT3pbFVQgyMCJAC3u58/kvZatwoZpPE+PpePAq/z6KMvnVTGma6jYKxXziW28ek4zqWRPrgau6miPRKAQPxL/Tr2VEq2q8uxxpsV15Vu8f4xxHwcw/viEbjLO3WoHMcnR64pUXHmJtPP2fkw6mRFFNkUgEz9GiZJTTjMpRjZns7HZipWcdnTkCoEYATvZ0lYEIrgp7hediNzxnsYYeOYWwFYbPQwP6aaTvmrcv8/iT+NUSlX8MDICn6xLwuBpXgv2ljeDbevlBOSC41n9GKXDa+dMYO9lSXyD7YXpysXgBqNKaogbaVYntYJO+bf3fMpyIg04H6CdE6Jh5kVc8a7/8qgbIAeC0BAXImpqSt0vMhnR4/042HW7YjfG2mEt10GVY68kq3SL9//6OieKTiAv4Lv5VFZFEPRdAlARQJCy/QWvL9ipI7QY6pQERB+w4vQw7URTxdxlfyu4DyenkWc6trb10e5PMtVwpUjtO+MCUY9Px6oZJ0YIDtglkszVdlzfLF+kuPrco2hOStwoevXcohmX6LFdp+WKR9pUjQCGOZ1SipOE6U1NN7CKFkFkQb6uu/ZrPEe++heYFa2zqKq9nj8IF7C5rhUND3lUv3OOr58Ccd/EJ3Zhdjo0kxj9jn/iB/iQAr15EvlCCXHH4XphWF7ulwqX/GlqRm7CvP4jAoBSCOABJFxSPdpkpckVnrrY1LFCCOlg/ZaACJHuh9MLmD3Jpb7tJPNMl/LbYiH4TZX0xlYxofbOTCusAn/QpuABlkYQ1Vtq1rlh9mXq0nGWjnEpa9CvO4AQRAZhVGPdXZrg3mexaN0OVa4NnJMcV2qb08FIO+CYiX3q4f3+WwfTt4AsDUhbok0YGNci4Pbdq3c90YWw+APRRaiu8qPt/CEUKS63V9aG1Xfu8zMcgGYm+pK1X9ggiCIjEKqOCXjIx8cHe9exSTPofr2VADKngrv2YHN5KN8SRONkt/NQTgRS1x+B9XGi3ym3n7P+odfIlfhZuQpdTxEU8Cylu2H2qz85rugIh9/aAVgNTWeCxAEkVkCsL9rE6vNRT74qWKUkXYCeysA2UlK7xrBkMgq4zp/TsYVk0UbeSW2uTTTkc3SX8v/l9gxjuFzMRLVszmEWDPbwbbJi+pVYKMwrGW/XYnnkgQgQWQURhv7/fJeGeuHp/Ef4D7RTIuillTnngnAwhporPzOXD7OF+un+PKUFfHnZEP2jMt8Zxo7P3clv/m/O6uMevx9+Q1aZ/2XZgvb1eCFADQV2KgZ1kQwubWUdAImCILIpF5ZwcYIa5w/rrLxCnyljSDeCcBIF4+mJBuxifzzaGM/HjReYl6dbIWvXJqJ4iG+xDitdr5xj1wO7za0hCkJv10BKPPXe1BQKkRlbkGNkDbfA5WU4UYQBJE5RKT7VXEbE7P8cVYqEIDoH+psrsEWgOwYDz04SftRf9Iw/HjY0mWiGzvNVUZDADhMji/bKO+i5K4AUK227V3Aazd5cPIr26DCSs6B4Sx9q3ZwypAgiGDAj2Xue4bxsPzxVkxzvUALqGMcQ/XukQCU3p7jkcuukav4JYj48cDmJ6I5bkLcpZkohc5/2G177QVb4sX9pRLxotUOZ+mzA4NThgRBBAMlx6ON883dCjkxIM+cddhJIpGL5p77UR0j+WXsGvMbPzSLeLRgdM5wXJCmQePdbJuslSkBpB1ld7ZaLvVEAv2hwooV0hFAqcRvjQQgQWQMdaokzlBg5jJ+kW8uH6rAxpm4Ajup9pULQKOp9OeorFZyKv8IN4rV3t+qbBMu4i/IEe5TZToWLJ8mr4vcgXMz5lvT9v5wbwQg1gamA0oHSvxma0EQRIaQ6AVdgZnTQ/bYnPcSH1DtO/z4t/GbNj76cyZWGE8V637cSsyLH62dijU+Pt0qq5fZM7Eqc8InWg1tbYeaJ1PA7CclZlqFsvgZVCQ/2FGyHgRBZMpHebZOhvanuvdAAMrmvnqUJ69OLtPP9ScVcmxCQTM5DNt9uJXJrhPNExMzK3zYiban0XcXrvDCg9yflOyYDqUANA5CkQIzv/i12JsgCM8/yquy7ln66CfrxVT/ygVgGqbHDmSj+ZzoUX7casP2+D05DdkYTxOvWGxMRWPzSZRnXPzYnwCes86TE2e3lDIVSUxqFBwQwtJvrcTKKhAEkSkf5WcrPpUqPOSxvlT/6gXgIbatqTxRoJ02Q3+jmi+7M7etNwdZR2OeR+ansbbmoLJNmRg9rJvtn071ygmpZGQxEsIxQEtN9vuV1A0SRMZ0ylk8ESopHbQHArC+TVsVyQauT9v4x6cMG1S+kt/qz0mtiZmiPRsM1Slx16KvONZcmJnBw4+D7XEz+Y1njV5J6bK2IawANT5naHQSRPbB68ujsvfpWSd+CMWAUgEYrWo7593vpVvMqyOtMVmhf4V4gC81zvClLCzz1UgjPIJdiuyVybuiTTJ5X5K0v5d5Z9SzrPKaGgFzQuiKP4cdq6QWF1A3SBAZ0if392f1fFAVIG0EcfgS2W9A1bRtazUAlCzFicZp8nGFKwfry4/4FO3a2I/eF0dJvM6weA12vvt2iHciN5esi2dw6FSLltsX5rO9WQEIAGyBkuWbnWoWeHFSiXdE24MrMBOP/5y+Z8iNpLMEZWW/bgSp5LU8ROkiG1+ovA2Enwoo2ydBB2A4RYFCAZhT3fbr9f/z95kf4wt+DW5XeF5GV2s+H2XdldjqbevhfROPsINc25lrDU18l+mhs/tcZrt+5dfe+RFbzrcj37WZvB3H4tMwlX+kmxLhuyCd504n89NZgqyKgke3Z2KHgghFxYTwrSQOnWINNbwdGmd5ETThbcU8igS77HcKWFa3bevvCZx3iYfLG8nXFSaYiOAybZUxFLleFYXRRp+Gd+FW/m1kg0WHzJd/YLjcwVvyQw89qcAcJXZODFcFyG5KzMxMa/eTVgEoVdzd3s7+MhCE9xFNmyCoDNQKQFSzbavkn/+6/Y/4BbIjVK79KpIj+CLdgyxHhTX4KDmXHe3SzG48EmlkvpoNedX0bqyZ7R//mFjhpS9suhIrp4Sp/Aur4wgl3eX0dD6FlZ/eQlRQfrtt/Ww7CMJrIqwfFYLWDxEqBWUCkFWx/QLdw1du/AfRCX2h8qipJuwL/lVxM4UWc42hkVUY4vpk4MnJNuLmkniWRM7tDn77nsfffDOUmDksemR4ij9ngK1zvPdHMjIrnU+h1Uzn3ZmCk5QZCUAiKB/lJ+AAKgVZix9PpaBMAErbSSXlnjs5KT6o3Izdr/SY5hOS8/mjRVxJozmZL5Yj3C6nZ8vQXZxYuixbwqboaCejpdLjndC5s9Sk2NbOD1E3d54SM4ti6V2kdXBay7COAhv2pJ2aKeBs3t9J7L//osnP/zSTgVQG6gSg7Z1ycq+d3KYy885IA6WnbeThBusXY6i7wV69gTGBfYpGLn2J4RazjZiUTWFj3ePgx/PiP3nrzdaEopVsZ9epEo7yL2qh6BSQz9McR/XSevuDFNgosfUrJSOAedl6wgNhg9r5sjeVAgDIM2oWUCkoEoDMdqej7bOTK1lnDmJdsUih71XlCD6nKMV1e4ahP86Wyp4ufUjiBauheBi7sylooj1xnIPvsXd8cOkzJVZ4/LRw1EDyQkUCLM0CUGuQxpvnQsUIoGnrZ0qSoVTkgyD2QulpKta0ZgQFO06jQlAlAO2f7LHfCQrzG9EWl2KLQv8Pt6bxd4ucfslrfIhcya5zvaN4qna4uNzj1DRBDJrbHPx4u/WaDx4pEjJsaBjKv4gryFQJACWJ2Wn+Vm+tZCVjap+AzVFJRRnaes7VKjyOVAFB7K3voonPv8qCJsNVCUBpe2wraef7IyleZA3lCDVrtv6UnWdbK4x7atv+Oja68LkYhRou77saZ4mufiSnDhrGqXCyWeLNeIn3PsWWYI0SQx15CJLBJK+CoaTpfI5kmh8l32ieNvGp5CC9yAZbP1MTnTq9sIg9U1g9bGmsPKVbYQ0qBCUC0P7kJrM5AG2a8WutlvhC4VNUkXeVrdDP2f8YpFGPvyenoY3L+5XhdtFUfJSNAVOsy+ecvGW1Z3xy7H1FsuCuoNdAtSi7VpGpABxTKDuk7dYqBKBlrrf1lEpGAK269MIi9vIiP9u7DLkhJEc7mwpBiQCUtk/GZQ4WXiZWiB6yJ1YpfJK67G1jOm+39x/UzjfukcvR1+0bi72Z00g8oHRXc4hIPuRo5dTU2BKfHFOUaoZ1No4Ldg2UX4FiJYaE+UUAHuektN1ZwenPcqO9uYxcJQKQkQAk9hYbNOlJ5eGFANRsp4lgDpegxj8VLXCjyrOCZCd8z18p2FMuJKafU7ZC3gW3q2jmyKPMc7etz9ZwKeqMSxw1w6f98kzMV/U5IYe7zgjpIdGquEHRc47HrgA8ULf07LyONsRhCrpPm8Iud42SDAgHgSD2gH4YOlAp/IMOegMqBAUC0LK9xUE6n3XfLR6raISXFZ6coeHCnJX8pn8u7+Ztjensbbj8fmZ/sPNFx/js7A0WXmSNdiSOVpgT/fNOvq3I0JH8kuDWAXscVRVZeisQD5Rf2i0dt40oOfdFLrf3u01l8g8FNdaCXljEHhlAOSL/RwrQGKAKAQj7e1zrp+JA2SYxBEcoOsvhz88hPMyXGH9uBC+oyV/GHNnJpc1deCi3ofmGwkyG4YOx0TjE0RV3+rnJIOdVZXd7sFrtgErwrmyQIlO/iK+D8UwyLbsXZV8lTWK57Z/+oMDn1nTIFbHHOCSx87+thUSxCgHIPBaAACDmx7ugH35X+FyHyfF8ktGG35izCoNdT+mNRzNx65bS7A4VfovDrIlz/d0mU/I7U7WmjZc/HcgqqIyRyjq1lwNzYvXpVQ/0+5ZFLdFRhR3L9tk/7DsFtysobkyvLOLf6B1A05170AA6TYu7F4DRDbZHveq78EOK9woas3uUnpl5opyPR1ynTliCE0Rv8Uu2BwrvivscXnK77+Olo5RZOlMPYFYt41FlHX15xWuBeayc5BDfRwcuVmNGzrXd0So5cznZhV5ZxP/EFo3/Ubl4JQDX7bC9eqVasSuxtWG7OUxrgvcCNM1aIq8UbYIyVZZOCpvgPYfTT1P9PxzP/BTKhDobxQ8PmPwbJK9U9nTvlm0KzpPJK4p9zXAXrSrPVWLoF/tJ4AvmKsl92ov6IuLfH1CSUp7suV+h1Dj7Dx4bGnG1tLkiqrwZXH7nxn5Dv6LnrBFI/8u3go207vYjiXHwKa6b/BLVHDa+29LgaFI+wZ5TZKsKxkbbBeeUF95WjlTXM7JHAxVg1awb4GP+Re0mNSmV2ff2f7tuB1+II1zf8riaBZvK0hJ/RXhFPpLNW+CCin4iVCQ9/lkEahqZr4P7hSHV9W7xTylC9tkX2vjNr3aNRZSsq4lNF0dgCNI7QjFZa2NeRfIPAKLVkl863kH9TnpeFfprCg8arKe9j7xg1EFBTYyFunQpX8QWB+xb/dqCmr6V5QFQNJIqpzn69UwFt6yctlNOX0Jv9p0xxv/1msR+PkPULFYZG7DH+ixAZZPdAlCutN3FHanIK0u8rDXC4/ZPIVHKL6y3ONG3BMYBp1pU+xRNHF4Uz70hPd6u2yFVbt84Tv8wCBKw4IDcKSpzwLGHAhdmhTm+bbvJfQz5ikxNdlTqal5paUlRxC/FmQCYHFixkt+OytQvBoXqhVDySSDHBeyTUM0GwlOrRSlGXApAa5Fta0eqcywmxA1WC+b3AG4Ct4pm5ngKjP8QrVb+Ndo7fkkN27ohXR7nPaVwDBCsl/HRP3NK+k9+rZypsqlCg5PMbwMYan15Hz9uU9RLqloa/otwdL6HmIa4grt2KW7md9UUNccTf32N4H6+nJ9FfWMw2HU6ChSYWR//PljPFZ+CmIrOs6I3xYhLAZi70La1OsV1VDqXWGX2lD2wwq+PDvlGeSPxUCDORwgERQdp01NYt7TIfCZ9Pm9NqB3fkj2Nj9I54lGtdu5UqEz+IXF7QMPtObW9x54/aJLKVlJKp0nOd+NzFfe1bva3WvRi68N/LT84GB/wqUYr6iHTj5pJTjYucBluy+UEJa2UJoHdCsCSddhmu3M6XvmXwBeiJbsWpuclMVt2jJ+//Q8/Cl0WhiE0CptYM1KQHuXsfFSk02/zeaxTWlun8OlFaTqEK9pp9w9opNTkWDE3oAFXPTnO42PhcrX3mbIU3xHHk1SakrNX5ICilj7WSiU2do8ReKycx0cWVqdXaDopOABq3rhjg/dsmhqfuubXojhxJQDhIIu95cWAa7k5ItkQL3p4qsR6ea44Kj7HjwIvbsYnIQTD0rxbZHoqh+fJ+8yFaXZ9p1Q9RtLOmsdP8P9B9Cu1KUztmSQ7cXOAg65d4lUvs/fzEThOmbGNMcebOmJfQMWucs162LcaYcbLOGZvChiXRFYZ11KqjfSRe7adPB77Zas5PYADEJOg4uiFSN45FCduBaDtNUOsW80CL9ws3SIuZW3xjRdyAcMrN4q/6ccQuF5sPJNciBODHxX6Xfg8pTNn58YfTL/78XegepVbNXzBb1fS2drEMIwx7BnVW1DYYwFPad6Pj3R9bs/eSvQ+XK7OmnwnhZNUypma86pPMs7zKQrv2c8UmiGf4D/qPehFmh4UrWf9JL1zNntm3Q41O4ElpYN2KwA1+98HVXZ198pVc5E4Dn2wRqnRj9BU3OFLZq0c/Ur2k7zSTxGRGtGq/FN2T0qv4YQ1IBBdidSuUu5HBPfz+dFOvvjP9IFyhQerV9bmPxj06MPFfJQXEpA/Ku9QGg4pnaSSfEHNh6Z8qriu91XBb5d32vhZY/YZ/zTaCITfPXUjBZklAcixAX1ANX4dXtiUYsWVAIz9gB22LXo6vSk+jDaVd0KNYPuRdRVnOdvJl3JXeqK+kD2D4uAHBD9Bm4+TUrx4cGJVMJ4i9iOe9MBsC206fzla1Vvfo43512wMPMiLZ125YXvwIxCD9fFqTwapnW+MhtrERD+klkkxsQJT1DTT5Acer5cEfwj32/7xydpi/fEiTi9UP4moGduKxycH8/nyPsXOAJVT9gpA7MIM218Tp3vbDazbEb8/pxF7y+WX9FZcJg43p/pRxPph+seYxJoFPxj0Yv01TEo14xx7WnwQnGcRd3mye5xhsPYrf8SrhcVFzY0x2mKFK9X+3jJfT0xEKGC9knOijdW1v7LvFB399ldZppy1UD6myIUOiTFeTZYDYMazDleL5rLrrFX8YocHRhIu6kjR5OZnQc17saVUqjlOtL+XK4uzQQA6SXlQmBzktdPb1psDrU72t6b8i3L2NBqKkR5uKvl/inX+CFvKTg1DKPCz2TJ2fqpNhc00bwzU4+yU53tUwzpuzF3NR+qHqTUbPUr/xPpRDvRokcC6yDUh6pcaafP5jQpKIse4ls2H6oQl6+LvpXpp/AvMU+TFmfwFb+RWtSh/V16RwoU18CKfa3Sh16ofRI9EfSWGxgb3GTU16aAPLupM8eJKADIHYwfsMj/0dmKW6MguYM7TtkxKtjaHipgfZcsHJ1fhxqAcJ7ZPTdORf413XUw7rq7onaZzW/b+qv2ePeCZ8Uq4hK0yZupXFRygoCtvrN/Nl2szWS/PWo6F82MiVD1TFTzCZ7tbc2kcy+fKJ6D8LAD2JMpdXH2/Mkcu5u+o712KWpT/gL4pX95aTuPvG/Xo1er560XN+N+OvM+D+4xygpuW9rfujyaB99Yb2e5Mlzo4jeB4McUf96tFy2/HNbbPavhJuz42wR/Pio62RuDwlC8vEynkCqxeuDth86cPi1v+39OWyftcjlGK5FGlywIY3RE+Gcd6fI8kprEJ1sz4AufbTmrnb+9gdWGno7Xnzfwec5hqm/xt+JFgYZI1LDHL+QPrPbTbpDdbdjYWHOpuLaUxUx6l7BU5Pad/icK8l8YF8lkFR+UtFq2cL9Lh89HG7Y2F5ltK4zzufup0juiQ4pW5fAOqKYifj+OnB1mg8C/RTYGZElErtQEK/W6mckaTw+0K8nL8rlJh259kGQv7AvBK+CQAtyZwi/4yHmP7Pw8xjvvFU/6MUhUdZD1i9XU1mpPSC0Y6vqPenl1r9WXu1hLtRt9Ayj8gWd4/d4EX2yn+LjLRVXZl4KWYLWewJezn3F+27DN/VbQqOxSHscPRqawtcn1ZnDLFvC+0n6jdtG58nnwdb8dL7F0QbRTpL/vjMK90AHvI7Vaa5I3aDFVjvezo5EJjsPmxClvFdZIj5JkqXiu4NnAnS2QY0e4q5B+gjQv4g36kRAAWGyendsCrVlXWD1R55EKlP/YFYMXbEftpFE4zWvuXDjj+M07nJ8on97HNwsLrFbeXbfTDm9r522+2boTbHXprU7loV54DJVfZ6CevQDv3IgsDxaSg9h7b/zD6yUm+pKotxAnsBEBiN/gm9ovcgAQrlQnE5XZWAANRFpWFOAiHwvC5EH6r6O/HelcPacva4nE+E1/JyfFFe/uIy6+V25kdg+NkU0+1x8+m68PkEt8ZbylM8lNVjtc/xo3xn9wYqVmw8+rkbVByRpEcHf+aJJq3aGrip9yaEOznrPg453kVK13lQIynqNnDB6T9n/J5DqY0PxOn+PwkOfql7J49JVphM+VQMc+f0tTPYQ9DwYmm7BnzaudXVatdvt7mT5ejBlSkM5FssPlasEOcD8bLWdzCE1rn2I+elKs/U8D/80bAz1gm1yCGmJawCpmBIlZLNkRD+JKERDtVxSKSwhqR5YqTQu1mo6ynUxOBxbo1WN6EAxR5stlqmtiWUkTRFLDdnj5avgkq0gB9Jboh4PBpULGtaCerZZrOLzOelldl8NvBwRQw2FvSvgA8uejomL/Hy1TEn+VvyavYhfhrAXIS07QRsYn+dAn6EdoIVWt7kintMiy33yU0URM+8mrxWtBjXLzCGyvOAhcekvIcb+Rf2shBYzT+z3erxH//6RufqVlDXLrZuEG+qlaOyCvZ5fqn2quFX66zn7UVenttYPI8qMu7KK3Bqck/wsHL7gyoyQI5NvjPKj9iKgRgZXlWVg8E7E3VOfpq/c32dgvIGfGj0/NEhU0izVGMcvxuzU9s9eem+bVyHmCDVOXlktPjKYW8fgSb42NJW7hUvBSKKNf4m8jGEyElLhWjPPsyfzvryjQeaV6ibAk2H4fTPfGyDF/gKzbbXLKvif8inuyME9kpUJzMiD1rpjxiQiOAtkvqK6g4m9wqr7P9j6A3uuK6ybVKVsx+I1LIr0ojgH//av3A/soV1jnaKTEzHY9Uugz+bkmoxK/FbQqTTezMuSzFK6v6+NQV8rz42yEJc0ucpxeyXlknAG/xTv5lJTeWKNyBl7w4p4P0IqF4Ac7EmRK8FEuwBmvkOphsN0xIFpV57ADrIFYPra36zIv9R4sDlg00I6lWu1xJqng2K/jyDyj5nc9BBwWGuhTXVdl+MwNHqVat55iDpafaMzgi5IvP7Xwh9JaPKd2XY8kLSpamdqlWw7fJsO2sv/g4RNVUHu/LJ+L4rGrbw8Uj1MEpZJza8e7SLUVny6893KBUiI7o+PdJHom/ps09wbT6qDm8i9jnt3c/RQnAx4bkgccqEYBasj8epuj5V6E4+XF8tqMs9m2MKzO78Ipa8K/lWKXyr5T1ib+bsnb0Kf0q+0Mea34cssraGe2Fz7OnYcu7xR0g1LEGg1VPLsamy0xam1qBsxMrKVB8aNuK0hrLcSF5XlVCldJBuxOAAB51VHHDVR+XFRyi1fjz1gJ0VWr0S7Q0XQQ7O8SXR1/MOsZ/CF+NrdshTseH2fGGYNfG7w2Fp5NCUqLbcaYXpwfFn8YLGRN014tJIDynsKmLAwb+zgKxOhxPHP8Zi5QYamG0ovhxJQDFh3DyjVegvZGRh4PnGkO1VbhM6bOtsnqJk1w2ST9SVn6Y2yn2W0jrbbfohxczvk3vZheYI0Li6234OQzaBueL+d6YFlfJTzJC/j0Rf5pep34QUTX+NzZE0aXIV0ljgO4EIJLsQUcFfpRxV6YVmX4SXyRHoEjlW4DdIFokJrq208LjRy9n14m+WxMhrrykuJRdn9ErU0tYN/ON0FTHdu1CWEH3kl0vPvCuCPR+CH/a5FHxbE205Hswor8aQ1aIBGBEla/nqMrUka0CEObb+NWRBLzDOC1ziivayJjIPleURe/PdoiXkg3Nx90fUlf1QMWpZf/N79Zx5pPhP+LJfIKdgUSGtueVsqM5LUwOx6Y7W1aSBm41n/TS/LodBadiaqij7m1xGR395g9FnXCwEkMrAnp85557iSVQs7q0Dj+WYsiVAES5dLa4XJOjC5tkQlEZhv64tliqPeHkW9ZOXFy6WYmSPNzLp5ejWcu0pPXxQgJ+Yh2BHzOwNb+Xe4S7A8HSgbgT3wfXO3m3eMjre2zYXtCTTQxt1L0kBgV/FDdTsFQdITguZA9OG0ECIgARfxfOtgDokfFFPOTlFOEXy1XsOqVJG9airzjGXKDKXNK7b5vN7Iz4eakcpBNUEiujHfFqRrXkXfIK0S+U0/PlOWdifTBdY/f7s5lmw3azt3w9lHE3XFyS+cm+AkMe+gRMUPnFR4rsnFmnCoWRKwEIyZyu92go3wrz3LtxLJ+HF1FdockyeWe0idqVRayrJw8v8YrV1ByXaYG/bocYjL7YkiGPs0A7Iv58WJ3ftp71DOCkfIUcat7p393iF+LmkEmpcnmFuIMmf318E/VQtMznNzEvXE8u5mONEkM80ZPiyJ0AhPmtUz0uT+Evh1MCGgfzD+RUqNw+LtmbOY3i9zs5sXP/RKuhpQeP/6N1tLgoU8/2FB8km4fuS3gPr2F2j+gQWxzmRzAXaiejNFAuxdDD532tUjwie6EkNJW2UTs+vB8d4UQqmgCW40In26WqrIWqyjCLBSCQMxRxh5dcwEd6mYTeC6oX8uFyOc5SanSOPMo8d5vyKS/tWOUCe5O8QrTNlHV/e6Z0szgTZ+G38D6BnK61M4ehPOw1EZuhnQwRGHeWyw5isv+3jX8eaYVQbOJhM3PbxqbTC9RPijgUjV5pIfzslYomgdlJ0aoUSy4F4Lb18nbHFw3hz4VIAjL93F0rcRsqKwzhDew80TE+2xN/1U4Al8pheYfFn0dF5jcB8VFBEzyAXeHznP0hB8aPiWXIdpbYdK1zQKT429qR6dpMU7JOHI9bAn6g2i7cZh67dQO9Pn2WQGcqehttMkP4WZ+YxdScXJyn9aVYcikAgfjzmOP4osuMp8IhAfUOfBYbzWorNLkTD1RqZI72aOhdQy91iggPJuvH79lSmi2NYMN2cTuasDGh2ssYl3fnNoy/lUkrsGJLKjrgm3SLana6GBBL51hkUjwsW6a7HPbBPK2deDAbPg0DJwBVTV5+HMptO5aqSWBGO4HdC0BY7GLnnYC8Sn8dlYJdJFUPNEazWUqOn/6Lj9BU3O6dpOLHoY4SQ5txu1ZP3Fa6JdsaglhtDtJayY9DIai243GrfvzezJPoZRvFCez+9L2e2BireRBOuY7/JLqiH9YGroK2yStFx9gSenH6T3EdHKNISIZ1S5+q80CO4odQPLkVgDAXIYUEqWyQMaWwRmDLozK/vWKlPFfpOOUidpw4y9tzF+UgBS+/mXKgOEg8EBPZ2hhiS+Knay3l6ECvqNvG7k0eLG7I1I05SJp3yqPk0jTceaE8yRwUD8omDCneizbBTQHap14un0KD+HM09pemhqHqFAszPiWkH+nTsFXNdx4dCadAAALiTqRwQqY8KjKnqGUQC4OfxZfjfhQoNLkFl4q25jfe+l2zgJ3hysBm9ozWyuwcfyuMK+GUi8DzIofi0UAmiFkur6pcz7w708dn43PibXGz421mbliFfuLw+JfBKod1O8SjefVxM9al3ZUd7FnWIH6NiNErM20oEi1sovtTp9JEBRSdm02TwEoEIHbJs1PqputZM43ewSoIozX/Bh8oOmbnv1/MT7KG4kXvJ7R2nI7CVN+1crTsIQ40r479SI3hv5T8Lm4SdWV/TAvMhPAuvM2OEU3jz24qy4oq2CUeSTZgz2CHD/f6BReLZuK9YE7+bykVj4hD2Bn4Km3+bcaDFYeYV5lrqWdIH0UtlKUiC3HiK6nK98a8HcWUewGI+M8YktKFhXIsf7lYD0YhFNbgL8q5qlZY/MlnVov4df6cnsEuTOGilfIJnCCqx8+Lf0GTOnuSIPF3xLGsPm7GgrT6UY4v2PlaTTHA/Da7KqB0s3l1RX08Bu9GnZLyY9lDNBQvBbwFVJjjRDersXzS5yyBFiahj6grbivbRB1CerFUjVltz/8yvKUQn6xqXoAmgf/UDu5N8BdwaYqXrsVg8XWaSyDPuEreCbVH1a2Q18U/9+sB9A7MfmIZyZbLGXKGNt1cQ8Fvl2hD7VT0wNFKDwLcPwKT2GfJCUFd7cffxjmuFVjT0uX7+03t/LJzMBgdFecP+Jm9q40q+T1koZhjHG31ZKfiMK8lJ6bJcTkfl/g6+WxMkE1dN5rDfBspzeUrXNtYJOwt3mF8IeoqeeF/ZoY6ETJ/C/2VGNoo6tiZm9OvYKdn8KtNquhUK/NZaJ2yA89Xujl901r6KewJNFRq0mT3mM/5uY1A/4TZTgHDrjGfIkGXGsW6dQKOkV3QAhFPb7QD37NvMdWcEexxKb8E4J93OwT9cCrau14Ib+F7fJL8pHRZqD9JGmun4kQcAfVnrK/ENPmNnJSxm4yIcFOZKzrLV4hQpf3yCCVf1UUHJWe5yJm3nt1lvuF/6ofCppEn0F2pySRetu5IbPXzKYxWcoHtWtxtHeivd5lIEU92QlvWBm2UrhitwAq2APOTcxJzw7FI218B+KfwqcZO1DrJo9HMsQgvxTzMwffJ6aWbM6f3jjZgR6CddoRsg3xXltbIH7VFclHuLErvTBAkAJ3KkNbyW0RdGFgib45/5t9jF9dJDsP5ikdypmrX+L+Vgr8H+3nNx4veFPIKy77IahJpKBvgMBwiD2Q1HcbTLmxgG6yf2U/4if1UuGLdjpA9fRoE4H+pUyXRjLWQjVAPB6M2ivewCaoCCWzEWqzBWrkmsjS2LJTJb22TXyvnIFaXHYR6Vj1WCzkwkIcC5KMSgHKUwgADYEEAiGEbtqFEbtFWYzVbE1m9NUGtmSBIAKaM3p1NcLlGaqp1px8nzxbXtW6QQ1BFqdHVuFF85H/1FTaNLLY/KcZ6m+Mp5D0jkl8jr6asBs44DJkLHRGAVZGVZRnbDbBdcrvcoQmYEGxrxcawj8WmUwD+D5V4fm6V8soAENmdLBMJ2tj0tz7+P6viNJryIgjCEwEIGBfIV1zbm8eeMd/1Lhsdb4fLMBB5So2W4gHxZHpO7+RfOzgDeKs4MLQZoAgSgARBEIRCNHWmzNfkXa6NtJWv89/4/cV1VD+oXqxfxRfiB1yoVP5J+UZuI/FgeuSffo4D+Qf2Nsk/giAIgiAAKE6tAP0Odp8SQxabLcdhnPjFvamaBTuOZQPQG5WVl95sOTQ+J11VV6xbK2Qt+yWabE6jLYQ6aASQIAgizOSoNRe/n+/EowoMafIoHIVH+SI5TptaaV5KiWKY0VJ2R7ednVklD0puvbw5/nY6Tw+ouIfZl3+QE+hVSxAEQRDEnyJJvUn9KvaUYrsVWIrZ7HvM11aX7C8TeG5R42Qz1lI2Y+1xgEeltoM9Xumh9B7KxdthlhP5bnVKfEfhTiiMQBoBJAiCCDE56k3Gn+G78ILK1YXIQSu0kpcASXATv7O1WCsTMAFImACLymJUQ1VUZTVkAyuXeaNs/8sH7MZ0n4tZxK13ndSdnE7yjyAIgiAIDwUgIEbp69g78OakXwOGbPEvebOHP3nEAnZNEM5ktZ7HoY4ueJhCnSAIgiCI/6J5Yzb+mXY01mZYWW3GxaJdEOSffrnD8xCX+JlkmyAIgiCILBWAQOxHqy2+yZhyKmdPaw3FS0FIpVrUkj3m7Ap5Szo3qxAEQRAEkTUCEEhsE93xaiYUEptoNTeHxkQQfCmuY01weIrJV/FPKdAJgiAIgvBFAALYLQajL2KhLqGVsqfZK7EqGM4U8eREHOTokqR2PYU5QRAEQRD+CUAA4gPWBtNCWjox3CJaBmf8rE6V5AS0cnjRS7HFFOYEQRAEQfgqAAFzrejKrgndMWQWG5NsLB4OkN+RxJvsaIfXJCruoSAnCIIgCMJ3AQjAMp/CUVgQonL5WmtlDirdHCCP8vgYnOH0InZn2UYKcoIgCIIg0iEAAYh5oh07D1tCUCa/oK84IbYkSC7VLODjnZ+7wGaaz1CIEwRBEASRNgEIwDJHW00xKgipVPZKHLeIZuKDYDlVWH3nVPRwfFmpHBTosiYIgiAIIgsEIIDEVnEJ2uPbgJbGB8kG4mHsCpZTxsGRGTjC+XXyZvErBThBEARBEGkXgAAg5oljtKPZxACWxnFam6C5xLvKWWiYwoVT4i9QeBMEQRAEERABCACxGWYvrQsmB6w0qrHP9LvTVSZ7IIcPx1c4IIUrS7QL6PQPgiAIgiACJQABIDZdnGgdhXcCNeWqsWH888LqQXCl6oH8a9yWUg0lcU7sNwpugiAIgiACJwABIDFL9LfqsOuxMkBl0i2yVB+Ybid4n4oF6JLixbeLSRTaBEEQBEEEVAACQGKr+YRowo5lY2AGpFSqszF8Eq+frtvrDfiXeB+pjkO+Lx6hwCYIgiAIItACEAAgzWnmIFED3fAC1gfCoxOxmN9Sp4rft61TxbiXLUa3lA0szhtMq/8IgiAIgtgXLIg+6UdoPWVntEdB2nXpBjwQf8m34+By9HPYMLgZedyITpT8hfAD/rbz1OT/Jtm0dDmVJEEQBAnAf8kh3loexTqhPeql6OcmLMUvOA95rvxYi/vEG6jw+Gnz+Hm4Be6mnWPasbEfKagJEoAEQRBEeAXg/1OnSmlD2RANZUPtMFkdRSjey9R1KTawLXIL+10uZ8uTixPbAID3wTuIuHRhvXwp76WtG7x5vpoFOy5kN6KuSzNl1omJWRTSBAlAgiAIIiME4P9SxK1iFP/tRbI9t6xgy7ode3lVDcZLCp60Ah9jpJii9Hg1jR8rB7EzEHVtaTd60d5fggQgQRAEYYeccLodExBY/a+/2+uvxSuGLp9QUFZn4ky+CZ/I8fEp2OlaxLaw+mMA6irR4BUYQPKPIAiCIIiMFoBOMZ/UK9hTSsY7a2IIG8JL8YWcxmaLRSh3asA4GF3RFV2tWsoebyfrZ35MwUwQBEEQBAnAfxB/hm/HKGVpbwpxFjsL4DvkPDYbK7Aaq8Xv+9goEjHqWo1YS9ZCdpKq8wsKdpo5jUKZIAiCIAgSgP+rk17Rt7PXXe4I/jdVWGd0/s8feTl+RwwCO1EGgU3IkbnMkFVRldVGXZnLAC8S9G1iPcwFFMgEQRAEQZAA3CPxd6JrtY9RzSPzuf9O4sLg+S6bNVb3xCoKY4IgCIIgnKBl1+MmvpNHInME07cVR5L8IwiCIAiCBOB+iP+c7IypGfAgEo+L48s2UggTBEEQBEECcL+UbhEnsnuUZvNLw0Ogn7jB89NJCIIgCIIgAZgxJM1h7AyYofV/ZaSjeJ+ClyAIgiAIEoCOMD+uaILPQui4xKjKbUuWUugSBEEQBEEC0DFlG0VPXIKyUDn9K+sqLtlURoFLEARBEAQJwNSQYpTVNjRbQiw5oqCF+Q0FLUEQBEEQJABdkVgpjpeDsDnwjn4vO8Wv3bCdQpYgCIIgCBKA7pHxMWjMnsbuwHq4Vp4jjozPpqoiCIIgCIIEoDJEzByqNcCoACaHKWP3RJvE3/XiFDmCIAiCILITRkXwd/QjtLvkKYEpFYEXkk+WbqZ6IQiCIAiCBKCnFLWQN8r+iKTZjU1sJEaYJtUHQRAEQRAkAH1Bb4DL2PkoSs/d5VLtCfPNAK9JJAiCIAiCBGBmUju/7BwMQQdfbxrDu/KN+PdU+gRBEARBkABMG0Y92Q8XoJHnN7IwhY3J/5ASvRAEQRAEQQIwGDKwjdWT9UQ7T3ZNb2ZfWp/LSYltVM4EQRAEQZAADBgFNSPdWBd0RmMl5hJYICezz8X8ACafIQiCIAiCBCDxTyGY29FqzVqiNQ5xXILb2ULMteZa80pXkPAjCIIgCIIEYOionb/zEFlf1rcO0arKqqiKqrIKqwKgEDuwG3G5g+2EkKXaGqyVv8nfkmvLNlGpEQRBEASRXv4PqUJatcti0SQAAAAldEVYdGRhdGU6Y3JlYXRlADIwMjMtMDMtMTRUMTc6NDc6NDgrMDA6MDDA+QWXAAAAJXRFWHRkYXRlOm1vZGlmeQAyMDIzLTAzLTE0VDE3OjQ3OjQ4KzAwOjAwsaS9KwAAAABJRU5ErkJggg==;" vertex="1" parent="1">
          <mxGeometry x="993.37" y="361" width="81.27" height="20" as="geometry" />
        </mxCell>
        <mxCell id="xKQsgJN87se9uh_CanPL-25" value="HTTPS&lt;br&gt;oauth" style="edgeStyle=orthogonalEdgeStyle;rounded=0;orthogonalLoop=1;jettySize=auto;html=1;entryX=-0.177;entryY=0.625;entryDx=0;entryDy=0;entryPerimeter=0;" edge="1" parent="1" target="xKQsgJN87se9uh_CanPL-24">
          <mxGeometry relative="1" as="geometry">
            <mxPoint x="898" y="372.5" as="sourcePoint" />
          </mxGeometry>
        </mxCell>
        <mxCell id="xKQsgJN87se9uh_CanPL-40" style="edgeStyle=orthogonalEdgeStyle;rounded=0;orthogonalLoop=1;jettySize=auto;html=1;" edge="1" parent="1" source="xKQsgJN87se9uh_CanPL-33" target="xKQsgJN87se9uh_CanPL-13">
          <mxGeometry relative="1" as="geometry" />
        </mxCell>
        <mxCell id="xKQsgJN87se9uh_CanPL-33" value="Content Crawler" style="rounded=1;whiteSpace=wrap;html=1;" vertex="1" parent="1">
          <mxGeometry x="778" y="243" width="120" height="45" as="geometry" />
        </mxCell>
        <mxCell id="xKQsgJN87se9uh_CanPL-42" style="edgeStyle=orthogonalEdgeStyle;rounded=0;orthogonalLoop=1;jettySize=auto;html=1;exitX=0;exitY=0.5;exitDx=0;exitDy=0;" edge="1" parent="1" source="xKQsgJN87se9uh_CanPL-34">
          <mxGeometry relative="1" as="geometry">
            <mxPoint x="688" y="370" as="targetPoint" />
          </mxGeometry>
        </mxCell>
        <mxCell id="xKQsgJN87se9uh_CanPL-34" value="Content Transformer" style="rounded=1;whiteSpace=wrap;html=1;" vertex="1" parent="1">
          <mxGeometry x="778" y="349" width="120" height="43" as="geometry" />
        </mxCell>
        <mxCell id="xKQsgJN87se9uh_CanPL-44" style="edgeStyle=orthogonalEdgeStyle;rounded=0;orthogonalLoop=1;jettySize=auto;html=1;entryX=0;entryY=0;entryDx=40;entryDy=28.5;entryPerimeter=0;" edge="1" parent="1" source="xKQsgJN87se9uh_CanPL-39" target="xKQsgJN87se9uh_CanPL-18">
          <mxGeometry relative="1" as="geometry" />
        </mxCell>
        <mxCell id="xKQsgJN87se9uh_CanPL-39" value="Sentiment Analyzer" style="rounded=1;whiteSpace=wrap;html=1;" vertex="1" parent="1">
          <mxGeometry x="778" y="451" width="120" height="47" as="geometry" />
        </mxCell>
        <mxCell id="xKQsgJN87se9uh_CanPL-49" value="Batch Processing" style="html=1;shadow=0;dashed=0;shape=mxgraph.bootstrap.rrect;rSize=5;strokeWidth=1;whiteSpace=wrap;align=center;verticalAlign=middle;spacingLeft=0;fontStyle=0;fontSize=11;spacing=5;labelBackgroundColor=none;fillColor=#647687;strokeColor=#314354;fontColor=#ffffff;" vertex="1" parent="1">
          <mxGeometry x="778" y="200" width="280" height="20" as="geometry" />
        </mxCell>
        <mxCell id="xKQsgJN87se9uh_CanPL-59" style="edgeStyle=orthogonalEdgeStyle;rounded=0;orthogonalLoop=1;jettySize=auto;html=1;" edge="1" parent="1" source="xKQsgJN87se9uh_CanPL-52" target="xKQsgJN87se9uh_CanPL-58">
          <mxGeometry relative="1" as="geometry" />
        </mxCell>
        <mxCell id="xKQsgJN87se9uh_CanPL-52" value="ArticlesSummary&lt;br&gt;Service" style="rounded=1;whiteSpace=wrap;html=1;" vertex="1" parent="1">
          <mxGeometry x="417" y="338" width="120" height="47" as="geometry" />
        </mxCell>
        <mxCell id="xKQsgJN87se9uh_CanPL-60" style="edgeStyle=orthogonalEdgeStyle;rounded=0;orthogonalLoop=1;jettySize=auto;html=1;" edge="1" parent="1" source="xKQsgJN87se9uh_CanPL-53" target="xKQsgJN87se9uh_CanPL-58">
          <mxGeometry relative="1" as="geometry" />
        </mxCell>
        <mxCell id="xKQsgJN87se9uh_CanPL-53" value="ArticlesSentiment&lt;br&gt;Service" style="rounded=1;whiteSpace=wrap;html=1;" vertex="1" parent="1">
          <mxGeometry x="417" y="442.5" width="120" height="47" as="geometry" />
        </mxCell>
        <mxCell id="xKQsgJN87se9uh_CanPL-61" style="edgeStyle=orthogonalEdgeStyle;rounded=0;orthogonalLoop=1;jettySize=auto;html=1;entryX=0.5;entryY=1;entryDx=0;entryDy=0;entryPerimeter=0;" edge="1" parent="1" source="xKQsgJN87se9uh_CanPL-54" target="xKQsgJN87se9uh_CanPL-58">
          <mxGeometry relative="1" as="geometry" />
        </mxCell>
        <mxCell id="xKQsgJN87se9uh_CanPL-54" value="UsersService" style="rounded=1;whiteSpace=wrap;html=1;" vertex="1" parent="1">
          <mxGeometry x="417" y="530" width="120" height="47" as="geometry" />
        </mxCell>
        <mxCell id="xKQsgJN87se9uh_CanPL-65" value="HTTPS&lt;br&gt;oauth" style="edgeStyle=orthogonalEdgeStyle;rounded=0;orthogonalLoop=1;jettySize=auto;html=1;" edge="1" parent="1" source="xKQsgJN87se9uh_CanPL-58" target="xKQsgJN87se9uh_CanPL-64">
          <mxGeometry relative="1" as="geometry" />
        </mxCell>
        <mxCell id="xKQsgJN87se9uh_CanPL-58" value="API Gateway" style="outlineConnect=0;dashed=0;verticalLabelPosition=bottom;verticalAlign=top;align=center;html=1;shape=mxgraph.aws3.api_gateway;fillColor=#D9A741;gradientColor=none;" vertex="1" parent="1">
          <mxGeometry x="295" y="418" width="51.82" height="63" as="geometry" />
        </mxCell>
        <mxCell id="xKQsgJN87se9uh_CanPL-67" value="HTTPS&lt;br&gt;oauth" style="edgeStyle=orthogonalEdgeStyle;rounded=0;orthogonalLoop=1;jettySize=auto;html=1;" edge="1" parent="1" source="xKQsgJN87se9uh_CanPL-64" target="xKQsgJN87se9uh_CanPL-66">
          <mxGeometry relative="1" as="geometry" />
        </mxCell>
        <mxCell id="xKQsgJN87se9uh_CanPL-64" value="WebApp" style="rounded=1;whiteSpace=wrap;html=1;fillColor=#b1ddf0;strokeColor=#10739e;" vertex="1" parent="1">
          <mxGeometry x="120" y="419.5" width="106" height="60" as="geometry" />
        </mxCell>
        <mxCell id="xKQsgJN87se9uh_CanPL-66" value="" style="sketch=0;outlineConnect=0;fontColor=#232F3E;gradientColor=none;fillColor=#232F3D;strokeColor=none;dashed=0;verticalLabelPosition=bottom;verticalAlign=top;align=center;html=1;fontSize=12;fontStyle=0;aspect=fixed;pointerEvents=1;shape=mxgraph.aws4.users;" vertex="1" parent="1">
          <mxGeometry x="10" y="430.5" width="38" height="38" as="geometry" />
        </mxCell>
        <mxCell id="xKQsgJN87se9uh_CanPL-68" value="Microservices" style="html=1;shadow=0;dashed=0;shape=mxgraph.bootstrap.rrect;rSize=5;strokeWidth=1;whiteSpace=wrap;align=center;verticalAlign=middle;spacingLeft=0;fontStyle=0;fontSize=11;spacing=5;labelBackgroundColor=none;fillColor=#1ba1e2;strokeColor=#006EAF;fontColor=#ffffff;" vertex="1" parent="1">
          <mxGeometry x="320" y="200" width="240" height="20" as="geometry" />
        </mxCell>
        <mxCell id="xKQsgJN87se9uh_CanPL-69" value="Internet Web App" style="html=1;shadow=0;dashed=0;shape=mxgraph.bootstrap.rrect;rSize=5;strokeWidth=1;whiteSpace=wrap;align=center;verticalAlign=middle;spacingLeft=0;fontStyle=0;fontSize=11;spacing=5;labelBackgroundColor=none;fillColor=#60a917;strokeColor=#2D7600;fontColor=#ffffff;" vertex="1" parent="1">
          <mxGeometry x="20" y="200" width="240" height="20" as="geometry" />
        </mxCell>
        <mxCell id="xKQsgJN87se9uh_CanPL-70" value="" style="image;aspect=fixed;perimeter=ellipsePerimeter;html=1;align=center;shadow=0;dashed=0;spacingTop=3;image=img/lib/active_directory/internet_globe.svg;" vertex="1" parent="1">
          <mxGeometry x="148" y="460" width="50" height="50" as="geometry" />
        </mxCell>
        <mxCell id="xKQsgJN87se9uh_CanPL-72" value="" style="image;aspect=fixed;perimeter=ellipsePerimeter;html=1;align=center;shadow=0;dashed=0;spacingTop=3;image=img/lib/active_directory/internet_globe.svg;" vertex="1" parent="1">
          <mxGeometry x="320" y="460" width="30" height="30" as="geometry" />
        </mxCell>
      </root>
    </mxGraphModel>
  </diagram>
</mxfile>
